<svg xmlns="http://www.w3.org/2000/svg" xmlns:xlink="http://www.w3.org/1999/xlink" viewBox="0 0 98.23 48.69"><defs><style>.cls-1{isolation:isolate;}.cls-2,.cls-8{fill:#fff;}.cls-3{fill:url(#linear-gradient);}.cls-4{fill:url(#linear-gradient-2);}.cls-5{fill:url(#linear-gradient-3);}.cls-6{fill:url(#linear-gradient-4);}.cls-7{fill:url(#linear-gradient-5);}.cls-8{font-size:1.74px;font-family:ADAM.CGPRO, "ADAM.CG PRO";}.cls-9{letter-spacing:-0.01em;}.cls-10{letter-spacing:-0.01em;}.cls-11{letter-spacing:-0.05em;}.cls-12,.cls-14{opacity:0.43;}.cls-12,.cls-13,.cls-14,.cls-15,.cls-16{mix-blend-mode:multiply;}.cls-12{fill:url(#linear-gradient-6);}.cls-13{opacity:0.36;fill:url(#linear-gradient-7);}.cls-14{fill:url(#linear-gradient-8);}.cls-15{fill:url(#linear-gradient-9);}.cls-16{opacity:0.35;fill:url(#linear-gradient-10);}</style><linearGradient id="linear-gradient" x1="21.7" y1="46.37" x2="19.81" y2="50.08" gradientUnits="userSpaceOnUse"><stop offset="0" stop-color="#fff"/><stop offset="1" stop-color="#8cb5de"/></linearGradient><linearGradient id="linear-gradient-2" x1="20.5" y1="48.56" x2="21.7" y2="47.08" xlink:href="#linear-gradient"/><linearGradient id="linear-gradient-3" x1="19.8" y1="44.36" x2="21.49" y2="43.64" xlink:href="#linear-gradient"/><linearGradient id="linear-gradient-4" x1="19.53" y1="44.02" x2="19.97" y2="46.08" xlink:href="#linear-gradient"/><linearGradient id="linear-gradient-5" x1="19.33" y1="46.06" x2="19.9" y2="44.13" xlink:href="#linear-gradient"/><linearGradient id="linear-gradient-6" x1="21.44" y1="8.56" x2="22.42" y2="12.8" gradientUnits="userSpaceOnUse"><stop offset="0.01" stop-color="#f5f2e3"/><stop offset="1" stop-color="#f7f5ea" stop-opacity="0"/></linearGradient><linearGradient id="linear-gradient-7" x1="21.44" y1="28.94" x2="30.18" y2="28.94" gradientUnits="userSpaceOnUse"><stop offset="0.01" stop-color="#e2dfcc"/><stop offset="1" stop-color="#f7f5ea" stop-opacity="0"/></linearGradient><linearGradient id="linear-gradient-8" x1="34.65" y1="13" x2="24.35" y2="19" xlink:href="#linear-gradient-7"/><linearGradient id="linear-gradient-9" x1="22.74" y1="22.16" x2="19.73" y2="28.43" xlink:href="#linear-gradient-7"/><linearGradient id="linear-gradient-10" x1="14.89" y1="20.89" x2="20.92" y2="18.94" xlink:href="#linear-gradient-7"/></defs><title>logo by siicanada blanc</title><g class="cls-1"><g id="Layer_1" data-name="Layer 1"><path class="cls-2" d="M19.91,44.19c-.09-.56-.34-.72-.54-.76a.52.52,0,0,0-.37.06.94.94,0,0,1,0-.16,21.84,21.84,0,0,1,.76-2.24.32.32,0,0,0-.17-.4.3.3,0,0,0-.39.17s-.44,1.09-.78,2.3a8.52,8.52,0,0,0-.41,2.56h0a3.87,3.87,0,0,0,.12.73c.1.4.32.53.49.56h.16c.18,0,.4-.15.62-.51a3.15,3.15,0,0,0,.22-.45,4.37,4.37,0,0,0,.19-.67h0a3.88,3.88,0,0,0,.08-.73A2.26,2.26,0,0,0,19.91,44.19Zm-.58.54a4,4,0,0,1-.07.54h0s0,.06,0,.1a2.52,2.52,0,0,1-.39.94l-.07.08a1.14,1.14,0,0,1-.07-.37,3,3,0,0,1,.06-.85l0-.13a2.13,2.13,0,0,1,.45-1,.64.64,0,0,1,0,.07A1.86,1.86,0,0,1,19.33,44.73Z" transform="translate(-0.77 -1)"/><path class="cls-2" d="M23.39,47.66a.29.29,0,0,0-.42,0,1.13,1.13,0,0,1-1.28,0l-.18-.11.15-.44c.06-.2.12-.41.17-.62s0-.22.07-.33L22.15,45l0-.07h0c.16-.61.25-1.12.26-1.15a.32.32,0,0,0-.25-.35.3.3,0,0,0-.35.25s-.11.63-.3,1.3c-.33,1.17-.61,1.42-.69,1.46s0,0-.05,0-.14-.25-.15-.34a3.64,3.64,0,0,1,.05-1,11.8,11.8,0,0,1,.3-1.29l0-.06a.25.25,0,0,0,0-.07h0a.27.27,0,0,0,0-.18.33.33,0,0,0-.21-.19.3.3,0,0,0-.36.22l0,0v.06a2.47,2.47,0,0,1-.51.91l-.15.11a.43.43,0,0,1-.37,0,.15.15,0,0,1-.09-.06c-.14-.14-.06-.46-.06-.48a.33.33,0,0,0,0-.14A.29.29,0,0,0,19,43.8a.3.3,0,0,0-.37.21,1.32,1.32,0,0,0,0,.5,1,1,0,0,0,.15.45.81.81,0,0,0,.44.32h0a.89.89,0,0,0,.32,0,.86.86,0,0,0,.28,0,1.17,1.17,0,0,0,.24-.09h0a3.93,3.93,0,0,0,0,1,.91.91,0,0,0,.56.85l.1,0h.11A.52.52,0,0,0,21,47h0c0,.1-.07.19-.1.28a1.88,1.88,0,0,0-.41,0,2.16,2.16,0,0,0-1.08.32A1.47,1.47,0,0,0,18.72,49a.75.75,0,0,0,.6.68l.12,0c.56,0,1.22-.6,1.77-1.59l.06-.1.08.06a1.77,1.77,0,0,0,1.39.29,1.48,1.48,0,0,0,.59-.27A.29.29,0,0,0,23.39,47.66Zm-4,1.42c-.06,0-.09-.14-.1-.19a.86.86,0,0,1,.46-.83,1.55,1.55,0,0,1,.82-.23h.07C20.11,48.84,19.59,49.11,19.42,49.08Z" transform="translate(-0.77 -1)"/><path class="cls-3" d="M21.66,47c.06-.2.12-.41.17-.62s0-.22.07-.33l.09-.39A2,2,0,0,1,21,47c0,.1-.07.19-.1.28a1.31,1.31,0,0,1,.57.2Z" transform="translate(-0.77 -1)"/><path class="cls-4" d="M19.7,49l.32.51a3.82,3.82,0,0,0,1.19-1.4l.06-.1a2,2,0,0,0-.6-.17A3,3,0,0,1,19.7,49Z" transform="translate(-0.77 -1)"/><path class="cls-5" d="M19.91,44.56l-.15.11a.43.43,0,0,1-.37,0,.15.15,0,0,1-.09-.06c-.14-.14-.06-.46-.06-.48a.33.33,0,0,0,0-.14A.29.29,0,0,0,19,43.8a.3.3,0,0,0-.37.21,1.32,1.32,0,0,0,0,.5,1,1,0,0,0,.15.45.81.81,0,0,0,.44.32h0a1,1,0,0,0,.6,0,1.17,1.17,0,0,0,.24-.09h0l.36-1.6v.06A2.47,2.47,0,0,1,19.91,44.56Z" transform="translate(-0.77 -1)"/><path class="cls-6" d="M19.26,44.09v0a1.56,1.56,0,0,1,.06.56l.06,0a.43.43,0,0,0,.37,0,.72.72,0,0,0,.15-.11l0,0a3.25,3.25,0,0,0,0-.33,1.34,1.34,0,0,0-.19-.54Z" transform="translate(-0.77 -1)"/><path class="cls-7" d="M19.49,46.43a3.17,3.17,0,0,0,.17-.37,4.37,4.37,0,0,0,.19-.67h0s0-.07,0-.1h-.05a.86.86,0,0,1-.28,0,1,1,0,0,1-.29,0s0,.05,0,.08a2.91,2.91,0,0,1-.28.76Z" transform="translate(-0.77 -1)"/><path class="cls-2" d="M26.86,46.52h0a1.56,1.56,0,0,1-1.38-.62c-.39-.64-.05-1.65.92-2.69l.08-.09,0,.12a1.37,1.37,0,0,0,.47,1.1h0a1.64,1.64,0,0,1,.52,1.15,1.47,1.47,0,0,1-.56,1Zm-.5-3.18c-.89,1-1.2,1.93-.84,2.52a1.48,1.48,0,0,0,1.31.59,1.45,1.45,0,0,0,.53-1,1.56,1.56,0,0,0-.51-1.09A1.49,1.49,0,0,1,26.36,43.34Z" transform="translate(-0.77 -1)"/><path class="cls-2" d="M26.5,46.81h0c-1.08-.06-1.81-.42-2-1a1.7,1.7,0,0,1,.37-1.6,6.57,6.57,0,0,1,1.88-1.62l0,.06a1.36,1.36,0,0,0-.29.61h0c-.93,1-1.28,2-.91,2.61a1.52,1.52,0,0,0,1.32.58h.09l-.06.07a4.39,4.39,0,0,1-.36.28Zm.06-4.07c-1.55,1-2.38,2.18-2,3,.22.57.92.92,2,1l.28-.22a1.5,1.5,0,0,1-1.29-.62c-.39-.64-.05-1.64.91-2.68A1.38,1.38,0,0,1,26.56,42.74Z" transform="translate(-0.77 -1)"/><path class="cls-2" d="M27,46.82l.1-.08.41-.32h0A6.67,6.67,0,0,0,29,46l0,0V46c0,.15,0,.29.05.39v0h0a9.19,9.19,0,0,1-1.94.35Zm.55-.34-.3.24A8.23,8.23,0,0,0,29,46.4c0-.09,0-.2-.05-.32A6.54,6.54,0,0,1,27.56,46.48Z" transform="translate(-0.77 -1)"/><path class="cls-2" d="M29.59,46.3v-.06c0-.13,0-.31.07-.53v0h0c.22-.11.44-.24.65-.37l.32-.2.06,0v.07c0,.22,0,.44,0,.64v0h0c-.25.12-.52.23-.78.34l-.12,0-.19.08Zm.15-.57c0,.19,0,.34-.06.46l.13-.06.12,0c.26-.1.51-.21.76-.33,0-.17,0-.36,0-.55l-.27.17C30.17,45.5,30,45.62,29.74,45.73Z" transform="translate(-0.77 -1)"/><path class="cls-2" d="M31.43,45.46v-.07c0-.29,0-.58,0-.86h0c1.2-1,1.85-2.17,1.67-2.94l0-.09.07.05a1.27,1.27,0,0,1,.59.65c.36.92-.57,2.22-2.3,3.24Zm.11-.91q0,.38,0,.78c1.66-1,2.55-2.25,2.21-3.13h0a1.23,1.23,0,0,0-.48-.57C33.37,42.43,32.73,43.54,31.54,44.55Z" transform="translate(-0.77 -1)"/><path class="cls-2" d="M33.24,41.64l-.07,0a3.62,3.62,0,0,0-1.88-.36h0V41l-.4.24v0h0a8.82,8.82,0,0,0-1.25.21l0,0v-.4h0c1.66-.66,3.09-.6,3.56.17a1,1,0,0,1,.12.3Zm-1.79-.49a3.66,3.66,0,0,1,1.68.34,2,2,0,0,0-.1-.21c-.44-.72-1.82-.78-3.44-.14v.25a9.38,9.38,0,0,1,1.18-.2h0l.56-.33v.3Z" transform="translate(-0.77 -1)"/><path class="cls-2" d="M27.94,42,27.87,42l0,0,.26-.16a7.63,7.63,0,0,1,.89-.48l.05,0v.33h0l-.78.27L28,42ZM29,41.39a8.83,8.83,0,0,0-.8.43l0,0,.76-.26Z" transform="translate(-0.77 -1)"/><path class="cls-2" d="M27.43,46.5l.09-.08a1.94,1.94,0,0,0,.69-1.26,1.48,1.48,0,0,0-.47-1.06A1.35,1.35,0,0,1,27.23,43c0-.32.3-.61.81-.91L27.88,42l.05,0,.34-.14.79-.27h.05V42l.4-.24v-.33h0a10.87,10.87,0,0,1,1.27-.22h0V42l.4-.24v-.58h0a3.61,3.61,0,0,1,1.91.37h0c.2.81-.45,2-1.69,3l-.07,0v-.08a9.53,9.53,0,0,0-.19-2.18l-.43.25a11.26,11.26,0,0,0-.12,2.55v0h0l-.32.2c-.21.13-.43.25-.66.37l-.06,0v-.07a11.77,11.77,0,0,0-.14-3.36l-.43.25A13.22,13.22,0,0,0,29.05,46v0h0a7.08,7.08,0,0,1-1.48.41ZM28,42l.15.12-.05,0c-.51.29-.78.57-.82.88a1.32,1.32,0,0,0,.49,1,1.52,1.52,0,0,1,.49,1.11,1.86,1.86,0,0,1-.63,1.23A6.65,6.65,0,0,0,29,46,13.22,13.22,0,0,1,29,42.57v0l.53-.32,0,.05a11.56,11.56,0,0,1,.16,3.37,5.6,5.6,0,0,0,.59-.33l.31-.19a11.35,11.35,0,0,1,.12-2.56v0l.53-.32,0,.05a9.88,9.88,0,0,1,.21,2.17c1.15-1,1.78-2.11,1.61-2.86a3.51,3.51,0,0,0-1.82-.36v.55l-.56.33v-.85a7.88,7.88,0,0,0-1.18.21v.31l-.56.33v-.49c-.24.07-.48.16-.73.25Z" transform="translate(-0.77 -1)"/><path class="cls-2" d="M26.58,42.72a5.17,5.17,0,0,0-.18.51.92.92,0,0,0,.15.7,6.14,6.14,0,0,0,.64.86,1.25,1.25,0,0,1,.16.92,1.5,1.5,0,0,1-.35.62l-.55.48H27l.15-.05.28-.21.36-.37.31-.49s.12-.46.12-.52,0-.41,0-.41-.21-.37-.27-.51-.2-.17-.25-.24l-.28-.4-.16-.56a2.17,2.17,0,0,1,.26-.5,4.27,4.27,0,0,1,.55-.43S28,42,28,42V42l-.21-.2a4.8,4.8,0,0,0-.81.52,1.57,1.57,0,0,0-.31.31Z" transform="translate(-0.77 -1)"/><path class="cls-2" d="M29.07,41.28l.23-.09.25-.11v.67l-.49.29Z" transform="translate(-0.77 -1)"/><path class="cls-2" d="M29.07,42.58l.48-.28.12.55,0,.6,0,.8v.59l0,.61,0,.27-.05.37,0,.2-.25.08-.28.09L29,46.25l-.09-.9V43.87l0-.81Z" transform="translate(-0.77 -1)"/><path class="cls-2" d="M31.47,45.28v.16l-.35.2-.36.18,0-.24,0-.66v-.61l0-.66,0-.64.06-.42.49-.28.09.47.08.65,0,.49,0,.6v.6Z" transform="translate(-0.77 -1)"/><polygon class="cls-2" points="30.04 40.22 30.52 39.91 30.52 40.76 30.04 41.04 30.04 40.22"/><path class="cls-2" d="M32.91,44.7l-.17.32s-.06,0-.1,0L32.52,45l.1.49c0,.09,0,.09-.08,0l-.21-.24,0,.12a0,0,0,0,1,0,0L32,45.36l.07.27s0,.08,0,.09l-.1.05.47.39a0,0,0,0,1,0,.06l0,.14.47-.07s0,0,0,0l0,.5H33l0-.5s0,0,0,0l.48.07-.05-.14a.11.11,0,0,1,0-.06l.48-.39-.1-.05s0,0,0-.09l.07-.27-.28.06s0,0,0,0l0-.12-.22.24s-.09,0-.07,0L33.3,45l-.13.06s-.07,0-.09,0Z" transform="translate(-0.77 -1)"/><text class="cls-8" transform="translate(23.59 47.66)"><tspan class="cls-9">s</tspan><tspan x="0.89" y="0">ii </tspan><tspan class="cls-10" x="2.35" y="0">c</tspan><tspan x="3.51" y="0">ana</tspan><tspan class="cls-11" x="7.21" y="0">d</tspan><tspan x="8.3" y="0">a</tspan></text><polygon class="cls-2" points="12.83 23.36 15.85 31 18.38 24.43 34.55 13.24 12.83 23.36"/><path class="cls-2" d="M30.94,29.87l0-.12c-.29-.67-2.12-1.18-4.33-1.18-2.42,0-4.37.61-4.37,1.37h0l0,.16,1.37,7.13c0,.83,2.13,1.5,4.76,1.5s4.75-.67,4.75-1.5a.52.52,0,0,0,0-.21h0Z" transform="translate(-0.77 -1)"/><polygon class="cls-2" points="34.55 13.24 4.15 22.41 12.83 23.36 34.55 13.24"/><path class="cls-2" d="M18.71,11.76l.76,4,0,.08a.19.19,0,0,1,0-.08h0l0,.08c.16.45,1.71.81,3.61.81s3.62-.4,3.62-.89h0l0-.1L23.61,5.28c-1.37-1.68-2.49-.89-3.17,0a4.71,4.71,0,0,0-.84,1.93Z" transform="translate(-0.77 -1)"/><path class="cls-12" d="M18.71,11.76l.76,4,0,.08a.19.19,0,0,1,0-.08h0l0,.08c.16.45,1.71.81,3.61.81s3.62-.4,3.62-.89h0l0-.1L23.61,5.28c-1.37-1.68-2.49-.89-3.17,0a4.71,4.71,0,0,0-.84,1.93Z" transform="translate(-0.77 -1)"/><polygon class="cls-2" points="34.55 13.24 18.38 24.43 32.95 25.95 34.55 13.24"/><polygon class="cls-2" points="15.85 31 24.61 25.08 18.38 24.43 15.85 31"/><ellipse class="cls-2" cx="25.81" cy="28.94" rx="4.37" ry="1.37"/><ellipse class="cls-13" cx="25.81" cy="28.94" rx="4.37" ry="1.37"/><polygon class="cls-14" points="34.55 13.24 20.56 19.76 22.96 21.26 34.55 13.24"/><polygon class="cls-15" points="17.11 27.73 20.21 28.05 24.61 25.08 18.38 24.43 17.11 27.73"/><polygon class="cls-16" points="14.05 22.87 21.65 19.32 21.65 17.17 13.77 19.55 14.05 22.87"/><path class="cls-2" d="M18.8,12.07v0L19,10.8l.1-.54.17-.85,0-.07a2.93,2.93,0,0,1,2.74-1.89,3,3,0,0,1,1.13.22,3,3,0,0,1,1.56,1.51L23.69,5.56h0s-.13-.46-.23-.78A4.66,4.66,0,0,0,22.58,3a4.91,4.91,0,0,0-8.72,1.73h0L12.74,8.17l-.14.4h0L12.21,9.8v.06h0V9.8l.39-1.23L12.21,9.8h0l0,0,0,0L.87,46.05a.55.55,0,0,0-.1.32c0,.93,2.53,1.69,5.66,1.69s5.65-.76,5.65-1.69h0v0l0-.11,0-.08,0-.15L18.25,14.9l.55-2.83-.55,2.83h0L12.11,46.22l0,.11" transform="translate(-0.77 -1)"/><path class="cls-2" d="M45.74,21.87l-.89,2.26H41.26l5-13H50l4.89,13h-3.6l-.84-2.26Zm2.36-6.72h0l-1.4,4.13h2.81Z" transform="translate(-0.77 -1)"/><path class="cls-2" d="M68.85,16.87a16.09,16.09,0,0,1-.24,2.68A6.23,6.23,0,0,1,67.53,22,5.55,5.55,0,0,1,65.19,24a7.51,7.51,0,0,1-3,.61,6.84,6.84,0,0,1-5-1.89,6.61,6.61,0,0,1-1.93-5,6.77,6.77,0,0,1,2-5.08,6.94,6.94,0,0,1,5.09-1.91,6.68,6.68,0,0,1,3.5.9,6.06,6.06,0,0,1,2.36,2.73l-3.21,1.33a3.28,3.28,0,0,0-1.07-1.48,2.72,2.72,0,0,0-1.74-.57,2.82,2.82,0,0,0-2.42,1.17,4.8,4.8,0,0,0-.94,2.57,1.1,1.1,0,0,0,0,.18v.28a4.86,4.86,0,0,0,.92,2.73,2.9,2.9,0,0,0,2.51,1.24,3,3,0,0,0,1.87-.57,2.27,2.27,0,0,0,.86-1.69H62.15V16.87Z" transform="translate(-0.77 -1)"/><path class="cls-2" d="M73.78,24.13H70.41v-13h3.37Z" transform="translate(-0.77 -1)"/><path class="cls-2" d="M79.37,21.26h4v2.87H76v-13h3.38Z" transform="translate(-0.77 -1)"/><path class="cls-2" d="M87.9,14v2.17h3.81V19H87.9v2.24h4v2.87H84.52v-13h7.39V14Z" transform="translate(-0.77 -1)"/><path class="cls-2" d="M46.87,39.54H43.49V29.4H40.7V26.54h9V29.4H46.87Z" transform="translate(-0.77 -1)"/><path class="cls-2" d="M57.41,26.11a7.52,7.52,0,0,1,5,1.89,6,6,0,0,1,2.19,4.82,6.92,6.92,0,0,1-2,5.15,7.66,7.66,0,0,1-10.32,0,6.89,6.89,0,0,1-2-5.15A6,6,0,0,1,52.42,28a7.43,7.43,0,0,1,5-1.87Zm-2.59,4.34a3.22,3.22,0,0,0-1.08,2.38,3.82,3.82,0,0,0,1.08,2.78,3.61,3.61,0,0,0,5.19,0,3.83,3.83,0,0,0,1.07-2.79A3.25,3.25,0,0,0,60,30.43a3.59,3.59,0,0,0-2.6-1A3.63,3.63,0,0,0,54.82,30.45Z" transform="translate(-0.77 -1)"/><path class="cls-2" d="M72.7,26.11a7.54,7.54,0,0,1,5,1.89,6,6,0,0,1,2.19,4.82,6.92,6.92,0,0,1-2,5.15,7.64,7.64,0,0,1-10.31,0,6.89,6.89,0,0,1-2-5.15A6,6,0,0,1,67.7,28a7.47,7.47,0,0,1,5-1.87Zm-2.59,4.34A3.22,3.22,0,0,0,69,32.83a3.82,3.82,0,0,0,1.08,2.78,3.6,3.6,0,0,0,5.18,0,3.84,3.84,0,0,0,1.08-2.79,3.26,3.26,0,0,0-1.08-2.39,3.55,3.55,0,0,0-2.59-1A3.61,3.61,0,0,0,70.11,30.45Z" transform="translate(-0.77 -1)"/><path class="cls-2" d="M84.83,36.68h4v2.86H81.46v-13h3.37Z" transform="translate(-0.77 -1)"/><path class="cls-2" d="M98.47,27.27l-1.35,2.62a4,4,0,0,0-1-.62,3.32,3.32,0,0,0-1.2-.23h-.19l-.21,0a1.86,1.86,0,0,0-.72.35.83.83,0,0,0-.33.69.83.83,0,0,0,.31.66,2.93,2.93,0,0,0,.68.41l.26.09.25.08.86.24a6.31,6.31,0,0,1,2.29,1.2A3,3,0,0,1,99,35.18v.27a5.83,5.83,0,0,1-.33,1.75,3.36,3.36,0,0,1-1,1.48,4.39,4.39,0,0,1-1.49.84,7.47,7.47,0,0,1-1.69.35H94a7.54,7.54,0,0,1-2.4-.39,8.28,8.28,0,0,1-2.17-1.07l1.45-2.74a6.62,6.62,0,0,0,1.39,1,3.31,3.31,0,0,0,1.61.4H94a2,2,0,0,0,1-.35,1.1,1.1,0,0,0,.46-1A1,1,0,0,0,95.1,35a3.29,3.29,0,0,0-.87-.46l-.42-.13-.38-.11-.07,0a.11.11,0,0,1-.08,0,7.45,7.45,0,0,1-2.45-1.1,2.93,2.93,0,0,1-.91-2.51,4.17,4.17,0,0,1,1.26-3.18,4.54,4.54,0,0,1,3.22-1.18,7.57,7.57,0,0,1,.81,0c.27,0,.55.08.83.14a11.66,11.66,0,0,1,1.28.37,8.13,8.13,0,0,1,1.15.51Z" transform="translate(-0.77 -1)"/></g></g></svg>