<?xml version="1.0" encoding="utf-8"?>
<!-- Generator: Adobe Illustrator 23.0.1, SVG Export Plug-In . SVG Version: 6.00 Build 0)  -->
<svg version="1.1" id="Layer_1" xmlns="http://www.w3.org/2000/svg" xmlns:xlink="http://www.w3.org/1999/xlink" x="0px" y="0px"
	 viewBox="0 0 369 485" style="enable-background:new 0 0 369 485;" xml:space="preserve">
<style type="text/css">
	.st0{fill:#F7F5EA;}
	.st1{fill:url(#SVGID_1_);}
	.st2{fill:url(#SVGID_2_);}
	.st3{fill:url(#SVGID_3_);}
	.st4{fill:url(#SVGID_4_);}
	.st5{fill:url(#SVGID_5_);}
</style>
<g>
	<polygon class="st0" points="138.23,238.3 167.67,312.65 192.25,248.72 349.6,139.73 	"/>
	<path class="st0" d="M307.06,291.93l-0.35-1.17c-2.82-6.53-20.61-11.57-42.14-11.57c-23.5,0-42.55,5.99-42.55,13.38l0,0l0.3,1.57
		l13.33,69.37c0,8.04,20.73,14.56,46.3,14.56c25.57,0,46.3-6.52,46.3-14.56c0-0.68-0.16-1.36-0.45-2.02h0L307.06,291.93z"/>
	<polygon class="st0" points="349.6,139.73 53.75,229.06 138.23,238.3 	"/>
	<path class="st0" d="M188,115.6l7.42,38.61l0.15,0.77c-0.09-0.25-0.15-0.51-0.15-0.77l0,0l0.15,0.77
		c1.59,4.38,16.7,7.81,35.12,7.81c19.48,0,35.26-3.84,35.26-8.58c0-0.04-0.01-0.09-0.01-0.13l-0.3-0.99L235.66,52.6
		c-13.28-16.39-24.2-8.69-30.82,0.1c-4.15,5.51-6.86,11.97-8.19,18.74L188,115.6z"/>
	<linearGradient id="SVGID_1_" gradientUnits="userSpaceOnUse" x1="214.5839" y1="84.5007" x2="224.102" y2="125.7458">
		<stop  offset="0.0112" style="stop-color:#E2DFCC"/>
		<stop  offset="1" style="stop-color:#F7F5EA;stop-opacity:0"/>
	</linearGradient>
	<path class="st1" d="M188,115.6l7.42,38.61l0.15,0.77c-0.09-0.25-0.15-0.51-0.15-0.77l0,0l0.15,0.77
		c1.59,4.38,16.7,7.81,35.12,7.81c19.48,0,35.26-3.84,35.26-8.58c0-0.04-0.01-0.09-0.01-0.13l-0.3-0.99L235.66,52.6
		c-13.28-16.39-24.2-8.69-30.82,0.1c-4.15,5.51-6.86,11.97-8.19,18.74L188,115.6z"/>
	<polygon class="st0" points="349.6,139.73 192.25,248.72 334.03,263.48 	"/>
	<polygon class="st0" points="167.67,312.65 252.84,255.03 192.25,248.72 	"/>
	<ellipse class="st0" cx="264.57" cy="292.58" rx="42.54" ry="13.38"/>
	<linearGradient id="SVGID_2_" gradientUnits="userSpaceOnUse" x1="222.0244" y1="292.576" x2="307.1144" y2="292.576">
		<stop  offset="0.0112" style="stop-color:#E2DFCC"/>
		<stop  offset="1" style="stop-color:#F7F5EA;stop-opacity:0"/>
	</linearGradient>
	<ellipse class="st2" cx="264.57" cy="292.58" rx="42.54" ry="13.38"/>
	<linearGradient id="SVGID_3_" gradientUnits="userSpaceOnUse" x1="350.5742" y1="137.3932" x2="250.3698" y2="195.8237">
		<stop  offset="0.0112" style="stop-color:#E2DFCC"/>
		<stop  offset="1" style="stop-color:#F7F5EA;stop-opacity:0"/>
	</linearGradient>
	<polygon class="st3" points="349.6,139.73 213.46,203.22 236.84,217.84 	"/>
	<linearGradient id="SVGID_4_" gradientUnits="userSpaceOnUse" x1="234.726" y1="226.5327" x2="205.3785" y2="287.6071">
		<stop  offset="0.0112" style="stop-color:#E2DFCC"/>
		<stop  offset="1" style="stop-color:#F7F5EA;stop-opacity:0"/>
	</linearGradient>
	<polygon class="st4" points="179.92,280.79 210.12,283.93 252.84,255.03 192.25,248.72 	"/>
	<linearGradient id="SVGID_5_" gradientUnits="userSpaceOnUse" x1="158.3116" y1="214.2317" x2="217.0065" y2="195.1955">
		<stop  offset="0.0112" style="stop-color:#E2DFCC"/>
		<stop  offset="1" style="stop-color:#F7F5EA;stop-opacity:0"/>
	</linearGradient>
	<polygon class="st5" points="150.09,233.5 224.1,198.99 224.1,178.01 147.33,201.19 	"/>
	<path class="st0" d="M188.87,118.64l-0.06-0.32l2.35-11.99l1.04-5.3l1.62-8.26l0.26-0.72c4.15-10.74,14.56-18.37,26.76-18.37
		c3.88,0,7.57,0.79,10.94,2.18c6.73,2.79,12.18,8.06,15.19,14.68l-10.5-35.21h0.12c0,0-1.28-4.55-2.25-7.65
		c-2.08-6.6-4.54-12.65-8.68-17.31c-8.7-11.8-22.7-19.46-38.49-19.46c-22.42,0-41.22,15.43-46.39,36.25l-0.01,0l-10.87,33.55
		c-0.83,2.16-1.29,3.56-1.38,3.85l-0.02,0.06l-3.74,11.96l-0.17,0.53l0,0.01h0l0-0.01l0.17-0.53l3.74-11.95l-3.74,11.95l0,0
		c0,0,0,0,0,0.01c0.06,0.09,0.13,0.18,0.19,0.27l-0.36,0.26L14.32,449.38c-0.62,0.99-0.96,2.01-0.96,3.06
		c0,9.12,24.65,16.52,55.06,16.52c30.41,0,55.06-7.4,55.06-16.52l0.02-0.08l0.06-0.3l0.2-1.01l0.16-0.83l0.27-1.39l59.27-302.63
		L188.87,118.64l-5.4,27.56l0,0l-59.7,304.84c-0.09,0.44-0.15,0.78-0.2,1.01"/>
</g>
</svg>
