<?xml version="1.0" encoding="utf-8"?>
<!-- Generator: Adobe Illustrator 23.0.1, SVG Export Plug-In . SVG Version: 6.00 Build 0)  -->
<svg version="1.1" id="Layer_1" xmlns="http://www.w3.org/2000/svg" xmlns:xlink="http://www.w3.org/1999/xlink" x="0px" y="0px"
	 viewBox="0 0 1144 470" style="enable-background:new 0 0 1144 470;" xml:space="preserve">
<style type="text/css">
	.st0{fill:#FFFFFF;}
	.st1{fill:url(#SVGID_1_);}
	.st2{fill:url(#SVGID_2_);}
	.st3{fill:url(#SVGID_3_);}
	.st4{fill:url(#SVGID_4_);}
	.st5{fill:url(#SVGID_5_);}
</style>
<g>
	<polygon class="st0" points="132.23,231.3 161.67,305.65 186.25,241.72 343.6,132.73 	"/>
	<path class="st0" d="M301.06,284.93l-0.35-1.17c-2.82-6.53-20.61-11.57-42.14-11.57c-23.5,0-42.55,5.99-42.55,13.38l0,0l0.3,1.57
		l13.33,69.37c0,8.04,20.73,14.56,46.3,14.56c25.57,0,46.3-6.52,46.3-14.56c0-0.68-0.16-1.36-0.45-2.02h0L301.06,284.93z"/>
	<polygon class="st0" points="343.6,132.73 47.75,222.06 132.23,231.3 	"/>
	<path class="st0" d="M182,108.6l7.42,38.61l0.15,0.77c-0.09-0.25-0.15-0.51-0.15-0.77l0,0l0.15,0.77
		c1.59,4.38,16.7,7.81,35.12,7.81c19.48,0,35.26-3.84,35.26-8.58c0-0.04-0.01-0.09-0.01-0.13l-0.3-0.99L229.66,45.6
		c-13.28-16.39-24.2-8.69-30.82,0.1c-4.15,5.51-6.86,11.97-8.19,18.74L182,108.6z"/>
	<linearGradient id="SVGID_1_" gradientUnits="userSpaceOnUse" x1="207.5839" y1="77.5007" x2="217.102" y2="118.7458">
		<stop  offset="0.0112" style="stop-color:#E2DFCC"/>
		<stop  offset="1" style="stop-color:#F7F5EA;stop-opacity:0"/>
	</linearGradient>
	<path class="st1" d="M181,108.6l7.42,38.61l0.15,0.77c-0.09-0.25-0.15-0.51-0.15-0.77l0,0l0.15,0.77
		c1.59,4.38,16.7,7.81,35.12,7.81c19.48,0,35.26-3.84,35.26-8.58c0-0.04-0.01-0.09-0.01-0.13l-0.3-0.99L228.66,45.6
		c-13.28-16.39-24.2-8.69-30.82,0.1c-4.15,5.51-6.86,11.97-8.19,18.74L181,108.6z"/>
	<polygon class="st0" points="343.6,132.73 186.25,241.72 328.03,256.48 	"/>
	<polygon class="st0" points="161.67,305.65 246.84,248.03 186.25,241.72 	"/>
	<ellipse class="st0" cx="258.57" cy="285.58" rx="42.54" ry="13.38"/>
	<linearGradient id="SVGID_2_" gradientUnits="userSpaceOnUse" x1="216.0244" y1="285.576" x2="301.1144" y2="285.576">
		<stop  offset="0.0112" style="stop-color:#E2DFCC"/>
		<stop  offset="1" style="stop-color:#F7F5EA;stop-opacity:0"/>
	</linearGradient>
	<ellipse class="st2" cx="258.57" cy="285.58" rx="42.54" ry="13.38"/>
	<linearGradient id="SVGID_3_" gradientUnits="userSpaceOnUse" x1="344.5742" y1="130.3932" x2="244.3698" y2="188.8237">
		<stop  offset="0.0112" style="stop-color:#E2DFCC"/>
		<stop  offset="1" style="stop-color:#F7F5EA;stop-opacity:0"/>
	</linearGradient>
	<polygon class="st3" points="343.6,132.73 207.46,196.22 230.84,210.84 	"/>
	<linearGradient id="SVGID_4_" gradientUnits="userSpaceOnUse" x1="228.726" y1="219.5327" x2="199.3785" y2="280.6071">
		<stop  offset="0.0112" style="stop-color:#E2DFCC"/>
		<stop  offset="1" style="stop-color:#F7F5EA;stop-opacity:0"/>
	</linearGradient>
	<polygon class="st4" points="173.92,273.79 204.12,276.93 246.84,248.03 186.25,241.72 	"/>
	<linearGradient id="SVGID_5_" gradientUnits="userSpaceOnUse" x1="152.3116" y1="207.2317" x2="211.0065" y2="188.1955">
		<stop  offset="0.0112" style="stop-color:#E2DFCC"/>
		<stop  offset="1" style="stop-color:#F7F5EA;stop-opacity:0"/>
	</linearGradient>
	<polygon class="st5" points="144.09,226.5 218.1,191.99 218.1,171.01 141.33,194.19 	"/>
	<path class="st0" d="M182.87,111.64l-0.06-0.32l2.35-11.99l1.04-5.3l1.62-8.26l0.26-0.72c4.15-10.74,14.56-18.37,26.76-18.37
		c3.88,0,7.57,0.79,10.94,2.18c6.73,2.79,12.18,8.06,15.19,14.68l-10.5-35.21h0.12c0,0-1.28-4.55-2.25-7.65
		c-2.08-6.6-4.54-12.65-8.68-17.31c-8.7-11.8-22.7-19.46-38.49-19.46c-22.42,0-41.22,15.43-46.39,36.25l-0.01,0l-10.87,33.55
		c-0.83,2.16-1.29,3.56-1.38,3.85l-0.02,0.06l-3.74,11.96l-0.17,0.53l0,0.01h0l0-0.01l0.17-0.53l3.74-11.95l-3.74,11.95l0,0
		c0,0,0,0,0,0.01c0.06,0.09,0.13,0.18,0.19,0.27l-0.36,0.26L8.32,442.38c-0.62,0.99-0.96,2.01-0.96,3.06
		c0,9.12,24.65,16.52,55.06,16.52c30.41,0,55.06-7.4,55.06-16.52l0.02-0.08l0.06-0.3l0.2-1.01l0.16-0.83l0.27-1.39l59.27-302.63
		L182.87,111.64l-5.4,27.56l0,0l-59.7,304.84c-0.09,0.44-0.15,0.78-0.2,1.01"/>
</g>
<g>
	<path class="st0" d="M480.98,178.95h-56.31l-9.83,31.84h-43.9l62.51-170.44h38.63l62.98,170.44h-44.13L480.98,178.95z
		 M434.51,147.23h36.64l-18.38-59.12L434.51,147.23z"/>
	<path class="st0" d="M684.55,189.72c-6.32,7.02-15.57,12.68-27.74,16.97c-12.17,4.29-25.52,6.44-40.03,6.44
		c-22.32,0-40.15-6.83-53.5-20.49c-13.35-13.66-20.49-32.66-21.42-57.01l-0.12-14.75c0-16.78,2.96-31.43,8.9-43.96
		c5.93-12.53,14.42-22.16,25.46-28.91c11.04-6.75,23.82-10.13,38.34-10.13c21.23,0,37.71,4.86,49.46,14.57
		c11.75,9.72,18.59,24.21,20.54,43.49h-39.57c-1.4-9.52-4.45-16.31-9.13-20.37c-4.68-4.06-11.32-6.09-19.9-6.09
		c-10.3,0-18.26,4.37-23.88,13.11c-5.62,8.74-8.47,21.23-8.55,37.46v10.3c0,17.01,2.91,29.79,8.72,38.34
		c5.81,8.54,14.96,12.82,27.45,12.82c10.69,0,18.65-2.38,23.88-7.14v-26.46H614.9v-28.21h69.65V189.72z"/>
	<path class="st0" d="M752.21,210.79h-40.97V40.35h40.97V210.79z"/>
	<path class="st0" d="M821.86,179.19h71.52v31.61H780.77V40.35h41.09V179.19z"/>
	<path class="st0" d="M1016.41,138.45h-64.62v40.74h76.32v31.61H910.71V40.35h117.65v31.72h-76.56v35.94h64.62V138.45z"/>
</g>
<g>
	<path class="st0" d="M517.97,265.76h-51.15v138.72h-41.09V265.76h-50.22v-31.72h142.46V265.76z"/>
	<path class="st0" d="M676.35,322.77c0,16.62-3.08,31.33-9.25,44.13c-6.17,12.8-14.92,22.65-26.28,29.56
		c-11.35,6.91-24.29,10.36-38.81,10.36s-27.39-3.34-38.63-10.01c-11.24-6.67-20-16.21-26.28-28.62
		c-6.28-12.41-9.58-26.65-9.89-42.73v-9.6c0-16.7,3.06-31.43,9.19-44.19c6.13-12.76,14.91-22.61,26.34-29.56
		c11.43-6.95,24.45-10.42,39.04-10.42c14.44,0,27.31,3.43,38.63,10.3c11.32,6.87,20.11,16.64,26.4,29.32
		c6.28,12.68,9.46,27.22,9.54,43.6V322.77z M634.56,315.63c0-16.93-2.83-29.79-8.49-38.57c-5.66-8.78-13.75-13.17-24.29-13.17
		c-20.6,0-31.49,15.45-32.66,46.36l-0.12,12.53c0,16.7,2.77,29.54,8.31,38.51c5.54,8.98,13.77,13.46,24.7,13.46
		c10.38,0,18.38-4.41,24-13.23c5.62-8.82,8.47-21.5,8.55-38.04V315.63z"/>
	<path class="st0" d="M841.87,322.77c0,16.62-3.08,31.33-9.25,44.13c-6.17,12.8-14.93,22.65-26.28,29.56s-24.29,10.36-38.81,10.36
		s-27.39-3.34-38.63-10.01c-11.24-6.67-20-16.21-26.28-28.62c-6.28-12.41-9.58-26.65-9.89-42.73v-9.6c0-16.7,3.06-31.43,9.19-44.19
		c6.13-12.76,14.91-22.61,26.34-29.56c11.43-6.95,24.45-10.42,39.04-10.42c14.44,0,27.31,3.43,38.63,10.3
		c11.32,6.87,20.11,16.64,26.4,29.32c6.28,12.68,9.46,27.22,9.54,43.6V322.77z M800.08,315.63c0-16.93-2.83-29.79-8.49-38.57
		c-5.66-8.78-13.75-13.17-24.29-13.17c-20.6,0-31.49,15.45-32.66,46.36l-0.12,12.53c0,16.7,2.77,29.54,8.31,38.51
		c5.54,8.98,13.77,13.46,24.7,13.46c10.38,0,18.38-4.41,24-13.23c5.62-8.82,8.47-21.5,8.55-38.04V315.63z"/>
	<path class="st0" d="M904.15,372.88h71.52v31.61H863.06V234.04h41.09V372.88z"/>
	<path class="st0" d="M1080.91,359.18c0-6.01-2.13-10.69-6.38-14.05c-4.25-3.36-11.73-6.83-22.42-10.42
		c-10.69-3.59-19.43-7.06-26.22-10.42c-22.09-10.85-33.13-25.75-33.13-44.72c0-9.44,2.75-17.77,8.25-24.99
		c5.5-7.22,13.29-12.84,23.35-16.86c10.07-4.02,21.38-6.03,33.95-6.03c12.25,0,23.24,2.18,32.95,6.55
		c9.72,4.37,17.27,10.59,22.65,18.67c5.38,8.08,8.08,17.31,8.08,27.68h-40.97c0-6.94-2.13-12.33-6.38-16.15
		c-4.26-3.82-10.01-5.74-17.27-5.74c-7.34,0-13.13,1.62-17.38,4.86c-4.26,3.24-6.38,7.36-6.38,12.35c0,4.37,2.34,8.33,7.02,11.88
		c4.68,3.55,12.92,7.22,24.7,11c11.78,3.79,21.46,7.86,29.03,12.23c18.42,10.61,27.63,25.25,27.63,43.9
		c0,14.91-5.62,26.61-16.86,35.12c-11.24,8.51-26.65,12.76-46.24,12.76c-13.81,0-26.32-2.48-37.52-7.43
		c-11.2-4.95-19.63-11.74-25.28-20.37c-5.66-8.62-8.49-18.55-8.49-29.79h41.2c0,9.13,2.36,15.86,7.08,20.19
		c4.72,4.33,12.39,6.5,23,6.5c6.79,0,12.15-1.46,16.1-4.39C1078.94,368.6,1080.91,364.49,1080.91,359.18z"/>
</g>
</svg>
