
<svg id="Layer_1" data-name="Layer 1" xmlns="http://www.w3.org/2000/svg" xmlns:xlink="http://www.w3.org/1999/xlink" viewBox="0 0 97.11 47.99"><defs><style>.cls-1{fill:#527ebf;}.cls-2{fill:url(#linear-gradient);}.cls-16,.cls-3{fill:#5c94ce;}.cls-4{fill:url(#linear-gradient-2);}.cls-5{fill:url(#linear-gradient-3);}.cls-6{fill:url(#linear-gradient-4);}.cls-7{fill:url(#linear-gradient-5);}.cls-8{fill:url(#linear-gradient-6);}.cls-9{fill:url(#linear-gradient-7);}.cls-10{fill:url(#linear-gradient-8);}.cls-11{fill:url(#linear-gradient-9);}.cls-12{fill:url(#linear-gradient-10);}.cls-13{fill:url(#linear-gradient-11);}.cls-14{fill:url(#linear-gradient-12);}.cls-15{fill:url(#linear-gradient-13);}.cls-16{font-size:1.76px;font-family:ADAM.CGPRO, "ADAM.CG PRO";}.cls-17{letter-spacing:-0.01em;}.cls-18{letter-spacing:-0.01em;}.cls-19{letter-spacing:-0.05em;}</style><linearGradient id="linear-gradient" x1="13.94" y1="26.93" x2="18.76" y2="23.4" gradientUnits="userSpaceOnUse"><stop offset="0" stop-color="#4164ad"/><stop offset="1" stop-color="#4c73ae" stop-opacity="0"/></linearGradient><linearGradient id="linear-gradient-2" x1="14.43" y1="20.59" x2="20.37" y2="18.66" xlink:href="#linear-gradient"/><linearGradient id="linear-gradient-3" x1="21.54" y1="8.45" x2="22.51" y2="12.63" xlink:href="#linear-gradient"/><linearGradient id="linear-gradient-4" x1="22.39" y1="21.84" x2="19.42" y2="28.02" gradientUnits="userSpaceOnUse"><stop offset="0" stop-color="#4269b1"/><stop offset="1" stop-color="#4c73ae" stop-opacity="0"/></linearGradient><linearGradient id="linear-gradient-5" x1="35.04" y1="32.47" x2="24.35" y2="34.56" xlink:href="#linear-gradient"/><linearGradient id="linear-gradient-6" x1="26.75" y1="28.26" x2="23.53" y2="28.9" xlink:href="#linear-gradient"/><linearGradient id="linear-gradient-7" x1="18.61" y1="-1.22" x2="18.71" y2="7.67" xlink:href="#linear-gradient"/><linearGradient id="linear-gradient-8" x1="34.15" y1="12.81" x2="24" y2="18.73" xlink:href="#linear-gradient"/><linearGradient id="linear-gradient-9" x1="21.49" y1="46.87" x2="21.44" y2="45.98" xlink:href="#linear-gradient"/><linearGradient id="linear-gradient-10" x1="21.01" y1="47.13" x2="19.98" y2="48.44" xlink:href="#linear-gradient"/><linearGradient id="linear-gradient-11" x1="21.14" y1="44.38" x2="19.6" y2="43.59" xlink:href="#linear-gradient"/><linearGradient id="linear-gradient-12" x1="19.58" y1="44.18" x2="19.54" y2="43.45" xlink:href="#linear-gradient"/><linearGradient id="linear-gradient-13" x1="19.58" y1="44.36" x2="19.27" y2="45.31" xlink:href="#linear-gradient"/></defs><title>logo by siicanada bleu</title><polygon class="cls-1" points="12.64 23.03 15.63 30.55 18.11 24.08 34.05 13.04 12.64 23.03"/><polygon class="cls-2" points="18.66 20.22 12.64 23.03 15.63 30.55 18.11 24.08 18.84 23.58 18.66 20.22"/><path class="cls-3" d="M30.91,29.46l0-.12c-.28-.66-2.09-1.17-4.27-1.17-2.38,0-4.31.61-4.31,1.35h0l0,.16,1.35,7c0,.81,2.09,1.47,4.68,1.47s4.69-.66,4.69-1.47a.52.52,0,0,0,0-.21h0Z" transform="translate(-1.17 -1)"/><polygon class="cls-3" points="34.05 13.04 4.09 22.09 12.64 23.03 34.05 13.04"/><polygon class="cls-4" points="13.6 22.54 21.09 19.05 21.09 16.92 13.32 19.27 13.6 22.54"/><path class="cls-1" d="M18.85,11.6l.75,3.91,0,.08a.19.19,0,0,1,0-.08h0l0,.08c.16.44,1.69.79,3.55.79s3.57-.39,3.57-.87h0l0-.1-3-10.18c-1.35-1.66-2.46-.88-3.13,0a4.61,4.61,0,0,0-.82,1.9Z" transform="translate(-1.17 -1)"/><path class="cls-5" d="M18.85,11.6l.75,3.91,0,.08a.19.19,0,0,1,0-.08h0l0,.08c.16.44,1.69.79,3.55.79s3.57-.39,3.57-.87h0l0-.1-3-10.18c-1.35-1.66-2.46-.88-3.13,0a4.61,4.61,0,0,0-.82,1.9Z" transform="translate(-1.17 -1)"/><polygon class="cls-3" points="34.05 13.04 18.11 24.08 32.47 25.58 34.05 13.04"/><polygon class="cls-3" points="15.63 30.55 24.25 24.72 18.11 24.08 15.63 30.55"/><polygon class="cls-6" points="16.84 27.33 19.9 27.65 24.23 24.72 18.09 24.08 16.84 27.33"/><path class="cls-7" d="M33.05,36.71a.52.52,0,0,0,0-.21h0l-2.1-7,0-.12a1,1,0,0,0-.33-.37l-4.28.55.09.41,1.87,8.25h.14C31,38.18,33.05,37.52,33.05,36.71Z" transform="translate(-1.17 -1)"/><ellipse class="cls-1" cx="25.44" cy="28.52" rx="4.31" ry="1.35"/><ellipse class="cls-8" cx="25.44" cy="28.52" rx="4.31" ry="1.35"/><path class="cls-3" d="M18.94,11.91v0l.24-1.21.1-.54.17-.84,0-.07a2.91,2.91,0,0,1,5.36-.15L23.76,5.5h0s-.13-.46-.23-.77A4.7,4.7,0,0,0,22.66,3a4.84,4.84,0,0,0-8.59,1.7h0L13,8.07a2.4,2.4,0,0,0-.14.39h0l-.37,1.21,0,.05h0V9.68l.38-1.21-.38,1.21h0v0l0,0L1.26,45.4a.61.61,0,0,0-.09.31c0,.93,2.49,1.67,5.57,1.67s5.58-.74,5.58-1.67h0v0l0-.1v-.08l0-.14,6-30.65.55-2.79-.55,2.79h0l-6,30.87,0,.1" transform="translate(-1.17 -1)"/><path class="cls-9" d="M23.28,7.58a2.88,2.88,0,0,1,1.54,1.49L23.76,5.5h0s-.13-.46-.23-.77A4.78,4.78,0,0,0,22.66,3a4.84,4.84,0,0,0-8.59,1.7h0L13,8.07c-.09.22-.13.36-.14.39h0l-.18.59c2.16,1.3,4.39,2.62,6.14,3.65l.16-.8v0l.24-1.21.1-.54.17-.84,0-.07a2.89,2.89,0,0,1,3.81-1.64Z" transform="translate(-1.17 -1)"/><polygon class="cls-10" points="34.05 13.04 20.26 19.48 22.63 20.95 34.05 13.04"/><path class="cls-3" d="M19.85,43.43c-.08-.57-.34-.74-.54-.78a.56.56,0,0,0-.38.07c0-.06,0-.11,0-.17.34-1.19.77-2.26.77-2.27a.31.31,0,0,0-.17-.4.31.31,0,0,0-.4.17,23.28,23.28,0,0,0-.78,2.33A8.38,8.38,0,0,0,18,45h0a3.94,3.94,0,0,0,.12.74c.11.4.32.53.49.56h.17a.89.89,0,0,0,.63-.51,2.8,2.8,0,0,0,.22-.46,4.5,4.5,0,0,0,.2-.68h0a4,4,0,0,0,.08-.74A3.23,3.23,0,0,0,19.85,43.43Zm-.59.55a2.86,2.86,0,0,1-.06.54h0l0,.1a2.49,2.49,0,0,1-.39,1l-.07.07a1.3,1.3,0,0,1-.08-.37,3.55,3.55,0,0,1,.07-.86l0-.13a2.12,2.12,0,0,1,.46-1,.25.25,0,0,0,0,.07A1.76,1.76,0,0,1,19.26,44Z" transform="translate(-1.17 -1)"/><path class="cls-3" d="M23.38,46.94a.29.29,0,0,0-.42,0,1.15,1.15,0,0,1-1.3,0l-.18-.11.15-.45c.06-.2.12-.42.17-.63s.05-.22.07-.33l.25-1.1,0-.07h0c.16-.62.25-1.14.26-1.17a.31.31,0,0,0-.25-.35.4.4,0,0,0-.19,0,.36.36,0,0,0-.17.23s-.11.64-.3,1.31c-.34,1.19-.62,1.44-.7,1.49h-.05c-.1,0-.14-.26-.15-.35a3.33,3.33,0,0,1,0-1,9.9,9.9,0,0,1,.3-1.31L21,43a.21.21,0,0,0,0-.06h0a.31.31,0,0,0,0-.19.28.28,0,0,0-.21-.18.29.29,0,0,0-.37.21v0l0,0a2.36,2.36,0,0,1-.52.93.83.83,0,0,1-.15.11.43.43,0,0,1-.37,0,.15.15,0,0,1-.09-.06c-.15-.14-.07-.47-.06-.49a.33.33,0,0,0,0-.14A.29.29,0,0,0,19,43a.3.3,0,0,0-.37.21,1.36,1.36,0,0,0,0,.51.89.89,0,0,0,.15.45.77.77,0,0,0,.45.33h0a1,1,0,0,0,.33,0,1,1,0,0,0,.29,0,.67.67,0,0,0,.23-.1h0a4,4,0,0,0,0,1c.07.58.35.79.57.86l.1,0h.11a.54.54,0,0,0,.21,0h0l-.1.28a3,3,0,0,0-.42,0,2.21,2.21,0,0,0-1.09.33,1.49,1.49,0,0,0-.74,1.46.76.76,0,0,0,.6.69h.13c.57,0,1.24-.59,1.8-1.6l.05-.1.09.05a1.77,1.77,0,0,0,1.4.3,1.65,1.65,0,0,0,.61-.27A.3.3,0,0,0,23.38,46.94Zm-4,1.44c-.07,0-.09-.14-.1-.19a.86.86,0,0,1,.46-.84,1.62,1.62,0,0,1,.83-.24h.08C20.06,48.14,19.53,48.41,19.36,48.38Z" transform="translate(-1.17 -1)"/><path class="cls-11" d="M21.63,46.28c.06-.2.12-.42.17-.63s.05-.22.07-.33l.09-.39a2,2,0,0,1-1,1.32l-.1.28a1.32,1.32,0,0,1,.58.2Z" transform="translate(-1.17 -1)"/><path class="cls-12" d="M19.64,48.29l.33.52a3.93,3.93,0,0,0,1.21-1.42l.05-.1a1.76,1.76,0,0,0-.6-.18A3.06,3.06,0,0,1,19.64,48.29Z" transform="translate(-1.17 -1)"/><path class="cls-13" d="M19.85,43.8a.83.83,0,0,1-.15.11.43.43,0,0,1-.37,0,.15.15,0,0,1-.09-.06c-.15-.14-.07-.47-.06-.49a.33.33,0,0,0,0-.14A.29.29,0,0,0,19,43a.3.3,0,0,0-.37.21,1.36,1.36,0,0,0,0,.51,1,1,0,0,0,.15.46.8.8,0,0,0,.45.32h0a1,1,0,0,0,.33,0,1,1,0,0,0,.29,0,.67.67,0,0,0,.23-.1h0l.37-1.62,0,0A2.36,2.36,0,0,1,19.85,43.8Z" transform="translate(-1.17 -1)"/><path class="cls-14" d="M19.2,43.32v0a1.91,1.91,0,0,1,.06.57l.06,0a.46.46,0,0,0,.38,0l.14-.11,0,0a1.87,1.87,0,0,0,0-.34,1.34,1.34,0,0,0-.19-.54Z" transform="translate(-1.17 -1)"/><path class="cls-15" d="M19.43,45.69a2.56,2.56,0,0,0,.17-.37,4.5,4.5,0,0,0,.2-.68h0s0-.07,0-.1h0a.92.92,0,0,1-.29,0,1,1,0,0,1-.29,0,.24.24,0,0,1,0,.08,2.56,2.56,0,0,1-.28.77Z" transform="translate(-1.17 -1)"/><path class="cls-3" d="M26.9,45.77h0a1.57,1.57,0,0,1-1.4-.63c-.4-.65,0-1.67.93-2.73l.08-.09v.12A1.35,1.35,0,0,0,27,43.56h0a1.66,1.66,0,0,1,.54,1.16,1.52,1.52,0,0,1-.58,1Zm-.5-3.23c-.9,1-1.22,2-.85,2.56a1.51,1.51,0,0,0,1.32.6,1.42,1.42,0,0,0,.54-1,1.54,1.54,0,0,0-.51-1.11A1.51,1.51,0,0,1,26.4,42.54Z" transform="translate(-1.17 -1)"/><path class="cls-3" d="M26.54,46.06h0c-1.11-.06-1.84-.42-2.08-1a1.72,1.72,0,0,1,.38-1.62,6.29,6.29,0,0,1,1.9-1.64l.05,0a1.32,1.32,0,0,0-.3.62h0c-.94,1-1.29,2-.92,2.65a1.56,1.56,0,0,0,1.34.59H27l-.07.06a2.6,2.6,0,0,1-.36.3Zm.07-4.13c-1.58,1-2.42,2.22-2.09,3.07.22.58.93.93,2,1l.27-.22a1.54,1.54,0,0,1-1.3-.63c-.4-.65,0-1.67.92-2.72A1.27,1.27,0,0,1,26.61,41.93Z" transform="translate(-1.17 -1)"/><path class="cls-3" d="M27.05,46.07l.11-.08a3.29,3.29,0,0,0,.41-.33h0a6.76,6.76,0,0,0,1.48-.41l.05,0v.05c0,.15,0,.29.05.4v0h0a8.85,8.85,0,0,1-2,.35Zm.56-.34a2.43,2.43,0,0,1-.3.24,7.74,7.74,0,0,0,1.79-.33c0-.08,0-.19,0-.31A7.24,7.24,0,0,1,27.61,45.73Z" transform="translate(-1.17 -1)"/><path class="cls-3" d="M29.67,45.54v-.06a4.27,4.27,0,0,0,.07-.54v0h0l.66-.36.32-.21.06,0v.07c0,.23,0,.45,0,.65v0l0,0c-.26.12-.53.24-.79.34l-.12.05-.2.07Zm.16-.57c0,.19,0,.34-.06.46l.13,0,.12-.05c.26-.1.52-.21.77-.33,0-.18,0-.37,0-.56l-.27.17C30.26,44.74,30.05,44.86,29.83,45Z" transform="translate(-1.17 -1)"/><path class="cls-3" d="M31.54,44.69v-.07q0-.45,0-.87h0c1.21-1,1.88-2.2,1.69-3l0-.09.08.05a1.29,1.29,0,0,1,.59.66c.36.93-.58,2.25-2.33,3.29Zm.11-.92c0,.25,0,.52,0,.79,1.69-1,2.58-2.28,2.24-3.17h0a1.16,1.16,0,0,0-.49-.57C33.51,41.63,32.86,42.75,31.65,43.77Z" transform="translate(-1.17 -1)"/><path class="cls-3" d="M33.37,40.82l-.07,0a3.7,3.7,0,0,0-1.9-.37h0v-.25L31,40.4v0h0a11.25,11.25,0,0,0-1.27.22l0,0v-.4h0c1.69-.68,3.14-.61,3.61.16a1.2,1.2,0,0,1,.13.31Zm-1.81-.49a3.75,3.75,0,0,1,1.7.33.75.75,0,0,0-.1-.2c-.44-.74-1.85-.79-3.49-.14v.25a8.38,8.38,0,0,1,1.2-.21h0l.56-.34v.31Z" transform="translate(-1.17 -1)"/><path class="cls-3" d="M28,41.21l-.07-.06,0,0,.27-.17c.29-.17.59-.34.89-.48l.06,0v.34h0a6.14,6.14,0,0,0-.79.27L28,41.2Zm1.11-.65c-.28.14-.55.28-.81.44h0l.77-.27Z" transform="translate(-1.17 -1)"/><path class="cls-3" d="M27.48,45.75l.09-.09a1.85,1.85,0,0,0,.7-1.27,1.48,1.48,0,0,0-.48-1.07,1.4,1.4,0,0,1-.51-1.11c0-.33.31-.62.82-.92l-.16-.14,0,0,.35-.14a8.46,8.46,0,0,1,.8-.28h.05v.46l.41-.24v-.33h0a9,9,0,0,1,1.28-.22h0v.81l.41-.24v-.59h0a3.73,3.73,0,0,1,1.94.38h0c.2.82-.46,2-1.71,3.05l-.07.06v-.09a9.2,9.2,0,0,0-.2-2.21l-.43.26a11.45,11.45,0,0,0-.12,2.57v0h0l-.32.21-.67.37-.06,0V45a12.13,12.13,0,0,0-.14-3.41l-.43.26a13.09,13.09,0,0,0-.05,3.47v0h0a6.43,6.43,0,0,1-1.5.42Zm.6-4.58.15.13-.05,0c-.52.3-.78.58-.83.89a1.32,1.32,0,0,0,.5,1,1.59,1.59,0,0,1,.5,1.13,1.92,1.92,0,0,1-.64,1.24,6.84,6.84,0,0,0,1.34-.38,13.17,13.17,0,0,1,.06-3.49h0l.55-.33v0a11.88,11.88,0,0,1,.17,3.42c.2-.11.41-.22.6-.34l.3-.19a12.23,12.23,0,0,1,.13-2.6h0l.54-.33v0a9.45,9.45,0,0,1,.22,2.2c1.17-1,1.81-2.14,1.64-2.9a3.64,3.64,0,0,0-1.86-.37V41l-.56.34v-.86a8.38,8.38,0,0,0-1.2.21V41l-.56.34v-.5c-.24.08-.5.16-.74.26Z" transform="translate(-1.17 -1)"/><path class="cls-3" d="M26.62,41.92a4.4,4.4,0,0,0-.18.51.93.93,0,0,0,.15.71,6.36,6.36,0,0,0,.65.88,1.23,1.23,0,0,1,.16.93,1.54,1.54,0,0,1-.36.63l-.55.48h.57l.15,0,.28-.23.37-.36.31-.5s.12-.47.13-.53-.05-.41-.05-.41-.21-.38-.27-.52-.2-.17-.25-.25-.29-.4-.29-.4l-.16-.57a2.18,2.18,0,0,1,.26-.51,5.69,5.69,0,0,1,.56-.44s-.06-.08-.06-.08v-.07L27.84,41a4.7,4.7,0,0,0-.82.52,2,2,0,0,0-.32.31Z" transform="translate(-1.17 -1)"/><path class="cls-3" d="M29.15,40.46l.23-.1.25-.11,0,.69-.5.29Z" transform="translate(-1.17 -1)"/><path class="cls-3" d="M29.15,41.78l.48-.29.13.55,0,.62,0,.8v.61l0,.61,0,.28-.05.37,0,.2-.25.09-.29.09,0-.21L29,44.58l0-.65v-.85l.05-.82Z" transform="translate(-1.17 -1)"/><path class="cls-3" d="M31.58,44.52v.16l-.36.2-.36.17,0-.23,0-.68,0-.61,0-.67.05-.65.06-.43.49-.28.1.47.08.67,0,.49,0,.61v.61Z" transform="translate(-1.17 -1)"/><polygon class="cls-3" points="29.74 39.39 30.23 39.08 30.23 39.94 29.75 40.23 29.74 39.39"/><path class="cls-3" d="M33,43.92l-.18.33s0,0-.09,0l-.12-.06.09.5c0,.09,0,.09-.07,0l-.22-.25,0,.13s0,0,0,0l-.28-.06.08.26c0,.06,0,.09,0,.1l-.09,0,.48.39a.07.07,0,0,1,0,.06l0,.14c.17,0,.31-.05.48-.06a0,0,0,0,1,0,0l0,.5h.08l0-.5s0,0,0,0,.32.05.48.06l0-.14a.07.07,0,0,1,0-.06L34,45l-.1,0s0,0,0-.1L34,44.6l-.28.06a.06.06,0,0,1,0,0l0-.13-.22.25s-.1,0-.08,0l.09-.5-.13.06a.06.06,0,0,1-.09,0Z" transform="translate(-1.17 -1)"/><text class="cls-16" transform="translate(23.21 46.93)"><tspan class="cls-17">s</tspan><tspan x="0.9" y="0">ii </tspan><tspan class="cls-18" x="2.38" y="0">c</tspan><tspan x="3.56" y="0">ana</tspan><tspan class="cls-19" x="7.31" y="0">d</tspan><tspan x="8.41" y="0">a</tspan></text><path class="cls-3" d="M44.29,21.48l-.91,2.28H39.75l5.06-13.17h3.74l5,13.17H49.86L49,21.48Zm2.39-6.82h0l-1.42,4.19h2.85Z" transform="translate(-1.17 -1)"/><path class="cls-3" d="M67.72,16.41a15.53,15.53,0,0,1-.25,2.72,6.12,6.12,0,0,1-1.1,2.5,5.68,5.68,0,0,1-2.36,2,7.58,7.58,0,0,1-3.07.61,7,7,0,0,1-5.07-1.91,6.73,6.73,0,0,1-1.95-5,6.88,6.88,0,0,1,2-5.15,7.07,7.07,0,0,1,5.16-1.94,6.81,6.81,0,0,1,3.56.92A6,6,0,0,1,67,13.86L63.75,15.2a3.42,3.42,0,0,0-1.08-1.5,2.81,2.81,0,0,0-1.77-.58,2.86,2.86,0,0,0-2.45,1.19,4.83,4.83,0,0,0-1,2.61.9.9,0,0,0,0,.18v.29a4.82,4.82,0,0,0,.93,2.76A2.93,2.93,0,0,0,61,21.41a3.07,3.07,0,0,0,1.88-.58,2.28,2.28,0,0,0,.88-1.71h-2.8V16.41Z" transform="translate(-1.17 -1)"/><path class="cls-3" d="M72.72,23.76H69.29V10.59h3.43Z" transform="translate(-1.17 -1)"/><path class="cls-3" d="M78.38,20.86h4.1v2.9H75V10.59h3.43Z" transform="translate(-1.17 -1)"/><path class="cls-3" d="M87,13.49v2.2h3.86v2.9H87v2.27h4.07v2.9H83.6V10.59h7.49v2.9Z" transform="translate(-1.17 -1)"/><path class="cls-3" d="M45.43,39.39H42V29.12H39.17V26.21h9.09v2.91H45.43Z" transform="translate(-1.17 -1)"/><path class="cls-3" d="M56.12,25.78a7.67,7.67,0,0,1,5.07,1.91,6.13,6.13,0,0,1,2.22,4.88,7,7,0,0,1-2.06,5.23,7.77,7.77,0,0,1-10.45,0,7,7,0,0,1-2.06-5.23,6.15,6.15,0,0,1,2.21-4.88,7.6,7.6,0,0,1,5.07-1.89Zm-2.63,4.39a3.28,3.28,0,0,0-1.09,2.42,3.84,3.84,0,0,0,1.09,2.81,3.65,3.65,0,0,0,5.26,0,3.84,3.84,0,0,0,1.09-2.82,3.26,3.26,0,0,0-1.09-2.42,3.62,3.62,0,0,0-2.63-1.06A3.73,3.73,0,0,0,53.49,30.17Z" transform="translate(-1.17 -1)"/><path class="cls-3" d="M71.62,25.78a7.63,7.63,0,0,1,5.06,1.91,6.13,6.13,0,0,1,2.22,4.88,7,7,0,0,1-2.05,5.23,7.78,7.78,0,0,1-10.46,0,7,7,0,0,1-2.06-5.23,6.13,6.13,0,0,1,2.22-4.88,7.6,7.6,0,0,1,5.07-1.89ZM69,30.17a3.28,3.28,0,0,0-1.09,2.42A3.84,3.84,0,0,0,69,35.4a3.65,3.65,0,0,0,5.26,0,3.89,3.89,0,0,0,1.09-2.82,3.3,3.3,0,0,0-1.09-2.42,3.64,3.64,0,0,0-2.63-1.06A3.71,3.71,0,0,0,69,30.17Z" transform="translate(-1.17 -1)"/><path class="cls-3" d="M83.92,36.49H88v2.9H80.49V26.21h3.43Z" transform="translate(-1.17 -1)"/><path class="cls-3" d="M97.74,27,96.37,29.6A4.22,4.22,0,0,0,95.32,29a3.39,3.39,0,0,0-1.22-.23h-.19a.78.78,0,0,0-.21,0,1.83,1.83,0,0,0-.73.35.84.84,0,0,0-.33.7.81.81,0,0,0,.31.67,2.8,2.8,0,0,0,.68.41l.27.1.25.08.88.24a6.36,6.36,0,0,1,2.31,1.22,3,3,0,0,1,.94,2.4v.28A6.74,6.74,0,0,1,98,37a3.41,3.41,0,0,1-1,1.49,4.45,4.45,0,0,1-1.51.86,7.22,7.22,0,0,1-1.71.35h-.52a7.46,7.46,0,0,1-2.43-.4,8.37,8.37,0,0,1-2.2-1.09L90,35.47a6.73,6.73,0,0,0,1.41,1,3.42,3.42,0,0,0,1.63.4h.14a2,2,0,0,0,1-.35,1.09,1.09,0,0,0,.47-1,.94.94,0,0,0-.39-.79,3.37,3.37,0,0,0-.88-.47L93,34.14,92.64,34l-.08,0-.08,0A7.44,7.44,0,0,1,90,32.85a3,3,0,0,1-.93-2.55,4.17,4.17,0,0,1,1.29-3.21,4.53,4.53,0,0,1,3.25-1.21,7.67,7.67,0,0,1,.82.05,6.17,6.17,0,0,1,.84.15,9.23,9.23,0,0,1,1.3.36,7,7,0,0,1,1.17.53Z" transform="translate(-1.17 -1)"/></svg>