<?xml version="1.0" encoding="iso-8859-1"?>
<!-- Generator: Adobe Illustrator 18.1.1, SVG Export Plug-In . SVG Version: 6.00 Build 0)  -->
<svg version="1.1" id="Capa_1" xmlns="http://www.w3.org/2000/svg" xmlns:xlink="http://www.w3.org/1999/xlink" x="0px" y="0px"
	 viewBox="0 0 325.521 325.521" style="enable-background:new 0 0 325.521 325.521;" xml:space="preserve">
<g>
	<g>
		<g>
			<path style="fill:#010002;" d="M318.559,108.624l-0.566-0.141l-103.342,5.706l-18.781,20.516l11.188-29.474l11.52-98.268
				l0.027-0.664l-0.179-0.647C217.648,2.926,215.652,0,212.416,0c-4.525,0-6.88,5.222-9.002,13.048
				c-1.947,7.163-22.627,57.496-33.428,83.506c-0.092,0.326-9.263,31.873-12.809,42.55l-0.364,1.088l-46.803,12.678
				c-3.552-9.203-10.421-17.051-19.684-22.36c-12.918-7.381-29.686-9.241-45.46-4.982c-14.332,3.9-26.515,12.271-34.353,23.567
				c-7.979,11.525-10.514,24.688-7.136,37.094c2.948,10.894,10.399,20.233,20.973,26.287c12.929,7.403,29.703,9.301,45.481,5.004
				c6.918-1.898,13.347-4.846,18.852-8.577l1.169-0.789c0.402-0.305,0.816-0.604,0.979-0.767
				c27.174-20.135,47.004-27.598,59.917-30.056c-2.464,12.891-9.905,32.683-29.899,59.715c-0.305,0.343-0.582,0.707-1.137,1.458
				l-0.805,1.066v0.179c-3.693,5.57-6.494,11.781-8.344,18.52c-4.275,15.839-2.453,32.422,5.004,45.471
				c6.065,10.568,15.403,18.02,26.26,20.962l1.012,0.218l0.294,0.065l0.522,0.12c10.459,1.55,22.507-1.354,22.507-1.354l1.066-0.223
				c16.584-5.847,30.1-21.305,35.278-40.287c4.286-15.855,2.48-32.439-4.988-45.514c-5.314-9.214-13.152-16.1-22.349-19.624
				l13.027-47.815c12.814-4.041,44.834-12.494,45.683-12.755c0.674-0.283,66.498-28.392,79.378-31.9l0.99-0.424
				c4.71-2.845,10.019-6.717,9.29-11.482C323.079,110.723,320.566,109.108,318.559,108.624z M63.652,194.784
				c-3.584,0.968-7.245,1.452-10.884,1.452c-6.233,0-12.031-1.436-16.774-4.139c-5.178-3.002-8.605-7.158-9.959-12.042
				c-3.421-12.635,8.023-27.201,24.976-31.829c9.785-2.66,20.038-1.675,27.647,2.692c3.601,2.056,8.251,5.831,9.97,12.042
				C92.098,175.834,80.888,190.095,63.652,194.784z M177.122,249.392c4.384,7.647,5.368,17.715,2.703,27.641
				c-4.074,14.832-15.474,25.58-27.103,25.58c-1.605,0-3.198-0.201-4.721-0.626c-4.89-1.327-9.067-4.759-12.053-9.943
				c-4.335-7.566-5.347-17.916-2.671-27.663c4.025-14.805,15.42-25.58,27.081-25.58c1.605,0,3.187,0.201,4.699,0.626
				C171.302,241.141,175.066,245.802,177.122,249.392z"/>
		</g>
	</g>
</g>
<g>
</g>
<g>
</g>
<g>
</g>
<g>
</g>
<g>
</g>
<g>
</g>
<g>
</g>
<g>
</g>
<g>
</g>
<g>
</g>
<g>
</g>
<g>
</g>
<g>
</g>
<g>
</g>
<g>
</g>
</svg>
