<?xml version="1.0"?>
<svg xmlns="http://www.w3.org/2000/svg" height="512px" viewBox="0 0 448 448" width="512px" class=""><g><path d="m117.953125 176h10.046875v-64h-29.246094zm0 0" data-original="#000000" class="active-path" data-old_color="#000000" fill="#FFFFFF"/><path d="m256 144c0 17.671875-14.328125 32-32 32s-32-14.328125-32-32 14.328125-32 32-32 32 14.328125 32 32zm0 0" data-original="#000000" class="active-path" data-old_color="#000000" fill="#FFFFFF"/><path d="m330.046875 416 19.199219-64h-29.246094v64zm0 0" data-original="#000000" class="active-path" data-old_color="#000000" fill="#FFFFFF"/><path d="m128 296v-64h-29.246094l19.199219 64zm0 0" data-original="#000000" class="active-path" data-old_color="#000000" fill="#FFFFFF"/><path d="m0 8h168v16h-168zm0 0" data-original="#000000" class="active-path" data-old_color="#000000" fill="#FFFFFF"/><path d="m184 0h80v32h-80zm0 0" data-original="#000000" class="active-path" data-old_color="#000000" fill="#FFFFFF"/><path d="m128 416v-64h-29.246094l19.199219 64zm0 0" data-original="#000000" class="active-path" data-old_color="#000000" fill="#FFFFFF"/><path d="m216 48h16v16h-16zm0 0" data-original="#000000" class="active-path" data-old_color="#000000" fill="#FFFFFF"/><path d="m256 264c0 17.671875-14.328125 32-32 32s-32-14.328125-32-32 14.328125-32 32-32 32 14.328125 32 32zm0 0" data-original="#000000" class="active-path" data-old_color="#000000" fill="#FFFFFF"/><path d="m320 112v64h10.046875l19.199219-64zm0 0" data-original="#000000" class="active-path" data-old_color="#000000" fill="#FFFFFF"/><path d="m330.046875 296 19.199219-64h-29.246094v64zm0 0" data-original="#000000" class="active-path" data-old_color="#000000" fill="#FFFFFF"/><path d="m152 448h144c4.417969 0 8-3.582031 8-8v-352c0-4.417969-3.582031-8-8-8h-144c-4.417969 0-8 3.582031-8 8v352c0 4.417969 3.582031 8 8 8zm72-352c26.507812 0 48 21.492188 48 48s-21.492188 48-48 48-48-21.492188-48-48c.027344-26.5 21.5-47.972656 48-48zm0 120c26.507812 0 48 21.492188 48 48s-21.492188 48-48 48-48-21.492188-48-48c.027344-26.5 21.5-47.972656 48-48zm0 120c26.507812 0 48 21.492188 48 48s-21.492188 48-48 48-48-21.492188-48-48c.027344-26.5 21.5-47.972656 48-48zm0 0" data-original="#000000" class="active-path" data-old_color="#000000" fill="#FFFFFF"/><path d="m256 384c0 17.671875-14.328125 32-32 32s-32-14.328125-32-32 14.328125-32 32-32 32 14.328125 32 32zm0 0" data-original="#000000" class="active-path" data-old_color="#000000" fill="#FFFFFF"/><path d="m280 8h168v16h-168zm0 0" data-original="#000000" class="active-path" data-old_color="#000000" fill="#FFFFFF"/></g> </svg>
