<?xml version="1.0" encoding="utf-8"?>
<!-- Generator: Adobe Illustrator 23.0.1, SVG Export Plug-In . SVG Version: 6.00 Build 0)  -->
<svg version="1.1" id="traffic-light" xmlns="http://www.w3.org/2000/svg" xmlns:xlink="http://www.w3.org/1999/xlink" x="0px"
	 y="0px" viewBox="0 0 141.96 280.62" style="enable-background:new 0 0 141.96 280.62;" xml:space="preserve">
<style type="text/css">
	.st0{fill:#565656;}
	.st1{fill:#3A3A3A;}
	.st2{fill:#212121;}
	.st3{fill:#FFFFFF;}
</style>
<g>
	<g>
		<rect x="53.42" y="223.66" class="st0" width="36" height="58"/>
		<rect x="53.42" y="223.66" class="st1" width="36" height="28.91"/>
	</g>
	<path class="st2" d="M71.13,214.57L71.13,214.57c-18.23,0-33-14.77-33-33v-148c0-18.23,14.77-33,33-33h0c18.23,0,33,14.77,33,33
		v148C104.13,199.79,89.36,214.57,71.13,214.57z"/>
	<g>
		<path class="st0" d="M109.64,32.47h31.28c0,0,4.64,9.24-9.69,24.16s-8.27,25.84-8.27,25.84h-13.32V32.47z"/>
		<path class="st1" d="M109.19,64.5v18h13.77c0,0-4.11-7.24,2.23-18H109.19z"/>
	</g>
	<g>
		<path class="st0" d="M32.1,32.47H0.82c0,0-4.64,9.24,9.69,24.16s8.27,25.84,8.27,25.84H32.1V32.47z"/>
		<path class="st1" d="M32.55,64.5v18H18.78c0,0,4.11-7.24-2.23-18H32.55z"/>
	</g>
	<g>
		<rect x="29.72" y="23.48" class="st0" width="82" height="68"/>
		<path class="st1" d="M99.72,86.48h-58c-2.21,0-4-1.79-4-4v-50c0-2.21,1.79-4,4-4h58c2.21,0,4,1.79,4,4v50
			C103.72,84.69,101.93,86.48,99.72,86.48z"/>
		<g id="red-light">
			<circle class="st3" cx="70.72" cy="57.48" r="25"/>
		</g>
	</g>
	<g>
		<path class="st0" d="M109.64,105.83h31.28c0,0,4.64,9.24-9.69,24.16s-8.27,25.84-8.27,25.84h-13.32V105.83z"/>
		<path class="st1" d="M109.19,137.86v18h13.77c0,0-4.11-7.24,2.23-18H109.19z"/>
	</g>
	<g>
		<path class="st0" d="M32.1,105.83H0.82c0,0-4.64,9.24,9.69,24.16s8.27,25.84,8.27,25.84H32.1V105.83z"/>
		<path class="st1" d="M32.55,137.86v18H18.78c0,0,4.11-7.24-2.23-18H32.55z"/>
	</g>
	<g>
		<rect x="29.72" y="96.84" class="st0" width="82" height="68"/>
		<path class="st1" d="M99.72,159.84h-58c-2.21,0-4-1.79-4-4v-50c0-2.21,1.79-4,4-4h58c2.21,0,4,1.79,4,4v50
			C103.72,158.05,101.93,159.84,99.72,159.84z"/>
		<g id="orange-light">
			<circle class="st3" cx="70.72" cy="130.84" r="25"/>
		</g>
	</g>
	<g>
		<path class="st0" d="M109.64,179.18h31.28c0,0,4.64,9.24-9.69,24.16c-14.33,14.92-8.27,25.84-8.27,25.84h-13.32V179.18z"/>
		<path class="st1" d="M109.19,211.21v18h13.77c0,0-4.11-7.24,2.23-18H109.19z"/>
	</g>
	<g>
		<path class="st0" d="M32.1,179.18H0.82c0,0-4.64,9.24,9.69,24.16c14.33,14.92,8.27,25.84,8.27,25.84H32.1V179.18z"/>
		<path class="st1" d="M32.55,211.21v18H18.78c0,0,4.11-7.24-2.23-18H32.55z"/>
	</g>
	<g>
		<rect x="29.72" y="170.2" class="st0" width="82" height="68"/>
		<path class="st1" d="M99.72,233.2h-58c-2.21,0-4-1.79-4-4v-50c0-2.21,1.79-4,4-4h58c2.21,0,4,1.79,4,4v50
			C103.72,231.41,101.93,233.2,99.72,233.2z"/>
		<g id="green-light">
			<circle class="st3" cx="70.72" cy="204.2" r="25"/>
		</g>
	</g>
</g>
</svg>
