<svg xmlns="http://www.w3.org/2000/svg" xmlns:xlink="http://www.w3.org/1999/xlink" viewBox="0 0 140.68 137.1"><defs><style>.cls-1{isolation:isolate;}.cls-2,.cls-6{fill:#fff;}.cls-2,.cls-3,.cls-4,.cls-7,.cls-8,.cls-9{stroke:#000;}.cls-2,.cls-4{stroke-miterlimit:10;}.cls-3,.cls-4,.cls-7,.cls-8,.cls-9{fill:none;}.cls-3,.cls-7,.cls-8,.cls-9{stroke-linecap:round;stroke-linejoin:round;}.cls-3{stroke-dasharray:2;}.cls-5{fill:#6b8199;}.cls-11,.cls-14,.cls-19,.cls-20,.cls-22,.cls-24,.cls-25,.cls-5{mix-blend-mode:multiply;}.cls-8{stroke-dasharray:1.91 1.91;}.cls-9{stroke-dasharray:1.9 1.9;}.cls-10{fill:url(#New_Gradient_Swatch_2);}.cls-11,.cls-14,.cls-19,.cls-20,.cls-22,.cls-24,.cls-25{opacity:0.27;}.cls-11{fill:url(#linear-gradient);}.cls-12{fill:url(#New_Gradient_Swatch_2-2);}.cls-13{fill:url(#New_Gradient_Swatch_2-3);}.cls-14{fill:url(#linear-gradient-2);}.cls-15{fill:#517ec0;}.cls-16{fill:url(#New_Gradient_Swatch_2-4);}.cls-17{fill:url(#New_Gradient_Swatch_2-5);}.cls-18{fill:url(#New_Gradient_Swatch_2-6);}.cls-19{fill:url(#linear-gradient-3);}.cls-20{fill:url(#linear-gradient-4);}.cls-21{fill:url(#New_Gradient_Swatch_2-7);}.cls-22{fill:url(#linear-gradient-5);}.cls-23{fill:url(#New_Gradient_Swatch_2-8);}.cls-24{fill:url(#linear-gradient-6);}.cls-25{fill:url(#linear-gradient-7);}</style><linearGradient id="New_Gradient_Swatch_2" x1="59.34" y1="82.06" x2="83.19" y2="67.13" gradientUnits="userSpaceOnUse"><stop offset="0" stop-color="#221035"/><stop offset="0.55" stop-color="#212557"/><stop offset="1" stop-color="#1968aa"/></linearGradient><linearGradient id="linear-gradient" x1="65.24" y1="78.39" x2="73.16" y2="72.59" gradientUnits="userSpaceOnUse"><stop offset="0" stop-color="#221134"/><stop offset="1" stop-color="#221134" stop-opacity="0"/></linearGradient><linearGradient id="New_Gradient_Swatch_2-2" x1="74.83" y1="88.94" x2="91.24" y2="86.06" xlink:href="#New_Gradient_Swatch_2"/><linearGradient id="New_Gradient_Swatch_2-3" x1="93.08" y1="59.06" x2="72.25" y2="65.91" xlink:href="#New_Gradient_Swatch_2"/><linearGradient id="linear-gradient-2" x1="66" y1="68.09" x2="75.91" y2="64.88" xlink:href="#linear-gradient"/><linearGradient id="New_Gradient_Swatch_2-4" x1="73.78" y1="43.06" x2="79.21" y2="58.81" xlink:href="#New_Gradient_Swatch_2"/><linearGradient id="New_Gradient_Swatch_2-5" x1="101.14" y1="47.02" x2="86.55" y2="71.15" xlink:href="#New_Gradient_Swatch_2"/><linearGradient id="New_Gradient_Swatch_2-6" x1="82.76" y1="68.52" x2="70.78" y2="81.29" xlink:href="#New_Gradient_Swatch_2"/><linearGradient id="linear-gradient-3" x1="79.34" y1="70.03" x2="74.42" y2="80.28" xlink:href="#linear-gradient"/><linearGradient id="linear-gradient-4" x1="94.21" y1="85.99" x2="116.19" y2="79.37" xlink:href="#linear-gradient"/><linearGradient id="New_Gradient_Swatch_2-7" x1="72.79" y1="82.77" x2="89.68" y2="80.25" xlink:href="#New_Gradient_Swatch_2"/><linearGradient id="linear-gradient-5" x1="86.65" y1="80.59" x2="81.26" y2="81.67" xlink:href="#linear-gradient"/><linearGradient id="New_Gradient_Swatch_2-8" x1="52.83" y1="107.16" x2="71.19" y2="45.24" xlink:href="#New_Gradient_Swatch_2"/><linearGradient id="linear-gradient-6" x1="70.53" y1="32.32" x2="71.23" y2="47.31" xlink:href="#linear-gradient"/><linearGradient id="linear-gradient-7" x1="98.91" y1="55.17" x2="82" y2="65.03" xlink:href="#linear-gradient"/></defs><title>Asset 5</title><g class="cls-1"><g id="Layer_2" data-name="Layer 2"><g id="Layer_1-2" data-name="Layer 1"><g id="t_shirt" data-name="t shirt"><path class="cls-2" d="M98.67,131.93l11.07-3.74a3.88,3.88,0,0,0,2.63-3.72l-.74-48.54a7.91,7.91,0,0,1,1.44-4.66L134.5,41.05l-11.58-18a19.18,19.18,0,0,0-6.58-6.24L89.86,1,80.62,5.48a23.44,23.44,0,0,1-20.57,0l-9-4.39L24.35,16.84a19.09,19.09,0,0,0-6.58,6.24l-11.59,18L27.61,71.27a7.84,7.84,0,0,1,1.44,4.66l-.72,47.7a5,5,0,0,0,3.41,4.83L42,131.93A88.35,88.35,0,0,0,98.67,131.93Z"/><path class="cls-3" d="M28.33,123.63,42,127.7a88.35,88.35,0,0,0,56.66,0l13.67-5"/><path class="cls-2" d="M93.65,1.36,92.53.79A2.64,2.64,0,0,0,89,2c-2.29,4.58-8.25,14-18.62,14.3C60,16,54,6.55,51.73,2A2.64,2.64,0,0,0,48.16.79L47,1.36A3.15,3.15,0,0,0,45.73,5.7c9.63,17.45,22.06,17.73,24.61,17.59,2.55.14,15-.14,24.62-17.59A3.15,3.15,0,0,0,93.65,1.36Z"/><path class="cls-4" d="M29.05,75.93V62.15a43.33,43.33,0,0,1,15.3-33.07L56.64,18.66"/><path class="cls-5" d="M45.35,4.48l-21,12.36a19.09,19.09,0,0,0-6.58,6.24l-11.59,18L27.61,71.27a7.84,7.84,0,0,1,1.44,4.66V62.15a43.33,43.33,0,0,1,15.3-33.07L56.72,18.71a38.49,38.49,0,0,1-11-13A3,3,0,0,1,45.35,4.48Z"/><path class="cls-5" d="M95.41,4.48l21,12.36A19.18,19.18,0,0,1,123,23.08l11.58,18L113.15,71.27a7.85,7.85,0,0,0-1.45,4.66V62.15a43.33,43.33,0,0,0-15.3-33.07L84,18.71a38.49,38.49,0,0,0,11-13A3.21,3.21,0,0,0,95.41,4.48Z"/><path class="cls-3" d="M25.82,61.16A43.31,43.31,0,0,1,41.12,28.1L54.17,16.66"/><path class="cls-3" d="M115.2,61.16A43.32,43.32,0,0,0,99.89,28.1l-13-11.44"/><path class="cls-4" d="M111.63,75.93V59.27A37.12,37.12,0,0,0,98.53,30.94L84,18.66"/><path class="cls-2" d="M1.49,39.51l5.29-3.23a1.54,1.54,0,0,1,2.07.45L28.59,65.62a2.53,2.53,0,0,1-.79,3.6L23,72.1a1.78,1.78,0,0,1-2.39-.54L.86,42.44A2.06,2.06,0,0,1,1.49,39.51Z"/><line class="cls-6" x1="6.18" y1="37.17" x2="27.06" y2="69.22"/><line class="cls-7" x1="6.18" y1="37.17" x2="6.73" y2="38.01"/><line class="cls-8" x1="7.77" y1="39.61" x2="25.99" y2="67.58"/><line class="cls-7" x1="26.51" y1="68.38" x2="27.06" y2="69.22"/><path class="cls-2" d="M139.19,39.51l-5.28-3.23a1.54,1.54,0,0,0-2.07.45L112.09,65.62a2.53,2.53,0,0,0,.8,3.6l4.83,2.88a1.77,1.77,0,0,0,2.38-.54l19.73-29.12A2.07,2.07,0,0,0,139.19,39.51Z"/><line class="cls-6" x1="133.52" y1="37.17" x2="112.89" y2="69.22"/><line class="cls-7" x1="133.51" y1="37.17" x2="132.97" y2="38.01"/><line class="cls-9" x1="131.94" y1="39.61" x2="113.94" y2="67.58"/><line class="cls-7" x1="113.43" y1="68.38" x2="112.89" y2="69.22"/></g><g id="logo"><polygon class="cls-10" points="62.99 72.08 68 84.34 72.17 73.8 98.9 55.83 62.99 72.08"/><polygon class="cls-11" points="73.08 67.52 62.99 72.08 68 84.34 72.17 73.8 73.39 72.98 73.08 67.52"/><path class="cls-12" d="M91.67,80.92l0-.19c-.48-1.08-3.51-1.91-7.16-1.91-4,0-7.23,1-7.23,2.21h0l0,.26,2.27,11.43c0,1.33,3.52,2.4,7.86,2.4s7.87-1.07,7.87-2.4a.8.8,0,0,0-.08-.33h0Z"/><polygon class="cls-13" points="98.9 55.83 48.65 70.56 62.99 72.08 98.9 55.83"/><polygon class="cls-14" points="64.59 71.29 77.17 65.6 77.17 62.14 64.13 65.96 64.59 71.29"/><path class="cls-15" d="M71.45,51.85l1.26,6.36,0,.13a.28.28,0,0,1,0-.13h0l0,.13c.27.72,2.83,1.29,6,1.29,3.31,0,6-.63,6-1.42v0l0-.16L79.55,41.46c-2.26-2.7-4.12-1.43-5.24,0a7.28,7.28,0,0,0-1.39,3.09Z"/><path class="cls-16" d="M71.45,51.85l1.26,6.36,0,.13a.28.28,0,0,1,0-.13h0l0,.13c.27.72,2.83,1.29,6,1.29,3.31,0,6-.63,6-1.42v0l0-.16L79.55,41.46c-2.26-2.7-4.12-1.43-5.24,0a7.28,7.28,0,0,0-1.39,3.09Z"/><polygon class="cls-17" points="98.9 55.83 72.17 73.8 96.26 76.23 98.9 55.83"/><polygon class="cls-18" points="68 84.34 82.46 74.84 72.17 73.8 68 84.34"/><polygon class="cls-19" points="70.04 79.08 75.17 79.6 82.43 74.84 72.13 73.8 70.04 79.08"/><path class="cls-20" d="M95.28,92.72a.8.8,0,0,0-.08-.33h0L91.67,80.92l0-.19a1.59,1.59,0,0,0-.57-.6l-7.17.9.15.66,3.14,13.43h.24C91.76,95.12,95.28,94.05,95.28,92.72Z"/><ellipse class="cls-15" cx="84.46" cy="81.03" rx="7.23" ry="2.21"/><ellipse class="cls-21" cx="84.46" cy="81.03" rx="7.23" ry="2.21"/><ellipse class="cls-22" cx="84.46" cy="81.03" rx="7.23" ry="2.21"/><path class="cls-23" d="M71.6,52.35V52.3l.4-2,.17-.87.28-1.37,0-.12a4.87,4.87,0,0,1,4.55-3,4.91,4.91,0,0,1,4.44,2.78l-1.79-5.81h0s-.21-.75-.38-1.26a7.49,7.49,0,0,0-1.48-2.86,8.17,8.17,0,0,0-6.53-3.2,8.07,8.07,0,0,0-7.88,6h0L61.58,46.1c-.14.35-.22.58-.24.63h0l-.63,2,0,.09h0l0-.09.63-2-.63,2h0l0,0-.06,0L42,106.88a.88.88,0,0,0-.17.5c0,1.51,4.19,2.73,9.36,2.73s9.35-1.22,9.35-2.73h0v-.05l0-.17,0-.13,0-.23,10.07-49.9.92-4.54-.92,4.54h0L60.54,107.15l0,.17"/><path class="cls-24" d="M78.89,45.3a4.81,4.81,0,0,1,2.58,2.42l-1.79-5.81h0s-.21-.75-.38-1.26a7.49,7.49,0,0,0-1.48-2.86,8.17,8.17,0,0,0-6.53-3.2,8.07,8.07,0,0,0-7.88,6h0L61.58,46.1c-.14.35-.22.58-.24.63h0l-.31,1,10.3,5.95.27-1.31V52.3l.4-2,.17-.87.28-1.37,0-.12a4.87,4.87,0,0,1,4.55-3A4.82,4.82,0,0,1,78.89,45.3Z"/><polygon class="cls-25" points="98.9 55.83 75.77 66.3 79.75 68.7 98.9 55.83"/></g></g></g></g></svg>