<?xml version="1.0" encoding="utf-8"?>
<!-- Generator: Adobe Illustrator 23.0.1, SVG Export Plug-In . SVG Version: 6.00 Build 0)  -->
<svg version="1.1" id="Layer_1" xmlns="http://www.w3.org/2000/svg" xmlns:xlink="http://www.w3.org/1999/xlink" x="0px" y="0px"
	 viewBox="0 0 152.23 161.98" style="enable-background:new 0 0 152.23 161.98;" xml:space="preserve">
<style type="text/css">
	.st0{fill:#FFFFFF;}
	.st1{fill:#517EC0;}
	.st2{fill:url(#SVGID_1_);}
	.st3{fill:#5C94CF;}
	.st4{fill:url(#SVGID_2_);}
	.st5{fill:url(#SVGID_3_);}
	.st6{fill:url(#SVGID_4_);}
	.st7{fill:url(#SVGID_5_);}
	.st8{fill:url(#SVGID_6_);}
	.st9{fill:url(#SVGID_7_);}
	.st10{fill:url(#SVGID_8_);}
</style>
<g id="t_shirt">
	<g>
		<path class="st0" d="M36.71,24.23c-3.23,2.47-6.18,5.29-8.76,8.45L12.81,51.27l-0.82,1.01L33.41,82.5
			c0.96,1.36,1.47,2.99,1.44,4.65l-0.72,47.7c-0.01,0.5,0.07,0.98,0.2,1.44c0.37,1.31,1.25,2.43,2.47,3.07
			c0.24,0.13,0.48,0.23,0.74,0.32l10.27,3.47c9.22,3.12,18.82,4.67,28.42,4.66c9.54-0.01,19.08-1.56,28.25-4.66l11.07-3.74
			c0.04-0.01,0.08-0.04,0.12-0.05c1.33-0.5,2.27-1.68,2.47-3.07c0.03-0.2,0.04-0.4,0.04-0.6l-0.74-48.54
			c-0.03-1.66,0.48-3.29,1.44-4.65l21.43-30.23l-0.65-1.01l-15.14-18.58c-2.58-3.16-5.53-5.98-8.76-8.45l-15.62-9.37l-4.47-2.68
			l-9.24,4.53c-3.22,1.58-6.7,2.37-10.2,2.39c-3.55,0.02-7.1-0.77-10.38-2.37l-8.99-4.38l-4.54,2.52L36.71,24.23z"/>
		<path d="M76.15,148.33c-9.71,0-19.3-1.58-28.49-4.69l-10.27-3.47c-0.28-0.09-0.55-0.21-0.82-0.35c-1.32-0.7-2.31-1.93-2.72-3.38
			c-0.15-0.54-0.22-1.07-0.22-1.59l0.72-47.7c0.02-1.57-0.44-3.07-1.35-4.35L11.36,52.25l16.2-19.88c2.54-3.12,5.51-5.99,8.84-8.53
			l0.05-0.03l15.62-9.37l4.78-2.65l9.22,4.5c3.14,1.53,6.66,2.33,10.16,2.32c3.44-0.02,6.89-0.83,9.98-2.34l9.48-4.65l20.33,12.19
			c3.37,2.58,6.35,5.45,8.89,8.57l15.14,18.58l0.87,1.34l-21.62,30.5c-0.91,1.28-1.37,2.79-1.35,4.35l0.74,48.54
			c0,0.23-0.01,0.46-0.04,0.68c-0.22,1.58-1.29,2.9-2.79,3.47c-0.06,0.03-0.1,0.04-0.14,0.06l-11.06,3.74
			c-9.17,3.1-18.72,4.68-28.4,4.69C76.2,148.33,76.17,148.33,76.15,148.33z M12.61,52.3l21.21,29.92c1.03,1.45,1.56,3.17,1.53,4.95
			l-0.72,47.7c-0.01,0.42,0.05,0.86,0.18,1.3c0.34,1.19,1.15,2.19,2.22,2.76c0.21,0.11,0.44,0.21,0.67,0.29l10.27,3.47
			c9.12,3.08,18.64,4.63,28.26,4.63c9.57-0.01,19.02-1.57,28.09-4.63l11.17-3.79c1.15-0.43,1.98-1.46,2.15-2.67
			c0.02-0.17,0.04-0.35,0.03-0.53l-0.74-48.54c-0.03-1.78,0.5-3.49,1.53-4.95l21.23-29.95l-0.47-0.73L124.12,33
			c-2.49-3.06-5.41-5.87-8.67-8.37L95.64,12.75l-8.99,4.41c-3.22,1.58-6.82,2.42-10.41,2.44c-3.65-0.02-7.32-0.82-10.6-2.42
			l-8.76-4.27l-4.31,2.39l-15.58,9.34c-3.25,2.49-6.16,5.31-8.65,8.35L12.61,52.3z"/>
	</g>
	<path d="M75.35,144.19C75.35,144.19,75.35,144.19,75.35,144.19c-0.67,0-1.34-0.01-2.01-0.03c-0.28-0.01-0.49-0.24-0.49-0.51
		c0.01-0.28,0.25-0.49,0.51-0.49c0.66,0.02,1.33,0.03,1.99,0.03c0.28,0,0.5,0.23,0.5,0.5C75.85,143.97,75.63,144.19,75.35,144.19z
		 M77.35,144.18c-0.27,0-0.5-0.22-0.5-0.49c0-0.28,0.22-0.5,0.49-0.51c0.66-0.01,1.33-0.03,1.99-0.06c0.27-0.02,0.51,0.2,0.52,0.48
		c0.01,0.28-0.2,0.51-0.48,0.52C78.7,144.15,78.03,144.17,77.35,144.18C77.36,144.18,77.35,144.18,77.35,144.18z M71.35,144.08
		c-0.01,0-0.02,0-0.03,0c-0.67-0.03-1.34-0.08-2.01-0.12c-0.28-0.02-0.48-0.26-0.46-0.54c0.02-0.27,0.25-0.48,0.54-0.46
		c0.66,0.05,1.32,0.09,1.99,0.12c0.28,0.01,0.49,0.25,0.47,0.52C71.84,143.87,71.62,144.08,71.35,144.08z M81.35,144.02
		c-0.26,0-0.48-0.2-0.5-0.47c-0.02-0.28,0.19-0.51,0.47-0.53c0.66-0.04,1.32-0.09,1.98-0.15c0.28-0.03,0.52,0.18,0.54,0.46
		s-0.18,0.52-0.46,0.54c-0.67,0.06-1.34,0.11-2.01,0.15C81.37,144.02,81.36,144.02,81.35,144.02z M67.36,143.79
		c-0.02,0-0.03,0-0.05,0c-0.67-0.06-1.33-0.14-2-0.21c-0.27-0.03-0.47-0.28-0.44-0.56c0.03-0.27,0.28-0.47,0.56-0.44
		c0.66,0.08,1.32,0.15,1.98,0.21c0.27,0.03,0.48,0.27,0.45,0.55C67.84,143.6,67.62,143.79,67.36,143.79z M85.33,143.68
		c-0.25,0-0.47-0.19-0.5-0.45c-0.03-0.27,0.17-0.52,0.44-0.55c0.66-0.07,1.32-0.15,1.97-0.24c0.27-0.04,0.52,0.16,0.56,0.43
		c0.04,0.27-0.16,0.52-0.43,0.56c-0.66,0.09-1.33,0.17-2,0.24C85.37,143.68,85.35,143.68,85.33,143.68z M63.39,143.32
		c-0.02,0-0.05,0-0.07,0c-0.66-0.09-1.33-0.2-1.99-0.31c-0.27-0.04-0.46-0.3-0.41-0.57c0.04-0.27,0.3-0.46,0.57-0.41
		c0.65,0.11,1.31,0.21,1.97,0.3c0.27,0.04,0.46,0.29,0.42,0.57C63.85,143.14,63.64,143.32,63.39,143.32z M89.3,143.16
		c-0.24,0-0.46-0.18-0.49-0.42c-0.04-0.27,0.15-0.53,0.42-0.57c0.65-0.1,1.31-0.21,1.96-0.33c0.27-0.05,0.53,0.13,0.58,0.4
		c0.05,0.27-0.13,0.53-0.4,0.58c-0.66,0.12-1.32,0.23-1.98,0.33C89.35,143.16,89.32,143.16,89.3,143.16z M59.45,142.67
		c-0.03,0-0.06,0-0.09-0.01c-0.66-0.12-1.32-0.26-1.97-0.39c-0.27-0.06-0.44-0.32-0.39-0.59c0.06-0.27,0.32-0.44,0.59-0.39
		c0.65,0.14,1.3,0.27,1.95,0.39c0.27,0.05,0.45,0.31,0.4,0.58C59.89,142.5,59.68,142.67,59.45,142.67z M93.24,142.46
		c-0.23,0-0.44-0.16-0.49-0.4c-0.05-0.27,0.12-0.53,0.39-0.59c0.65-0.13,1.3-0.27,1.94-0.41c0.27-0.06,0.54,0.11,0.6,0.38
		s-0.11,0.54-0.38,0.6c-0.65,0.15-1.31,0.29-1.97,0.42C93.3,142.45,93.27,142.46,93.24,142.46z M55.53,141.84
		c-0.04,0-0.08,0-0.12-0.01c-0.65-0.15-1.3-0.31-1.95-0.48c-0.27-0.07-0.43-0.34-0.36-0.61c0.07-0.27,0.34-0.43,0.61-0.36
		c0.64,0.17,1.29,0.33,1.93,0.48c0.27,0.06,0.44,0.33,0.37,0.6C55.97,141.68,55.76,141.84,55.53,141.84z M97.14,141.58
		c-0.22,0-0.43-0.15-0.48-0.38c-0.07-0.27,0.1-0.54,0.36-0.61c0.64-0.16,1.28-0.33,1.92-0.5c0.26-0.07,0.54,0.08,0.61,0.35
		c0.07,0.27-0.08,0.54-0.35,0.61c-0.65,0.18-1.3,0.35-1.95,0.51C97.22,141.58,97.18,141.58,97.14,141.58z M51.66,140.83
		c-0.05,0-0.09-0.01-0.14-0.02c-0.64-0.18-1.29-0.37-1.93-0.57c-0.26-0.08-0.41-0.36-0.33-0.63c0.08-0.26,0.36-0.41,0.63-0.33
		c0.63,0.2,1.27,0.38,1.91,0.56c0.27,0.08,0.42,0.35,0.34,0.62C52.08,140.69,51.88,140.83,51.66,140.83z M101,140.53
		c-0.22,0-0.41-0.14-0.48-0.36c-0.08-0.26,0.07-0.54,0.34-0.62c0.64-0.19,1.27-0.38,1.9-0.59c0.26-0.08,0.54,0.06,0.63,0.32
		c0.08,0.26-0.06,0.54-0.32,0.63c-0.64,0.21-1.28,0.4-1.92,0.59C101.09,140.52,101.04,140.53,101,140.53z M47.84,139.65
		c-0.05,0-0.11-0.01-0.16-0.03l-0.37-0.12l-1.53-0.45c-0.27-0.08-0.42-0.36-0.34-0.62c0.08-0.26,0.35-0.42,0.62-0.34l1.93,0.58
		c0.26,0.09,0.4,0.37,0.32,0.63C48.24,139.52,48.05,139.65,47.84,139.65z M104.8,139.29c-0.2,0-0.4-0.13-0.47-0.33
		c-0.09-0.26,0.04-0.55,0.3-0.64l1.88-0.68c0.26-0.09,0.55,0.04,0.64,0.3c0.09,0.26-0.04,0.55-0.3,0.64l-1.88,0.68
		C104.91,139.28,104.86,139.29,104.8,139.29z M44.01,138.51c-0.05,0-0.09-0.01-0.14-0.02l-1.92-0.57c-0.27-0.08-0.42-0.36-0.34-0.62
		c0.08-0.26,0.36-0.42,0.62-0.34l1.92,0.57c0.27,0.08,0.42,0.36,0.34,0.62C44.42,138.37,44.22,138.51,44.01,138.51z M108.56,137.93
		c-0.2,0-0.4-0.13-0.47-0.33c-0.09-0.26,0.04-0.55,0.3-0.64l1.88-0.68c0.26-0.09,0.55,0.04,0.64,0.3c0.09,0.26-0.04,0.55-0.3,0.64
		l-1.88,0.68C108.67,137.92,108.62,137.93,108.56,137.93z M40.17,137.38c-0.05,0-0.09-0.01-0.14-0.02l-1.92-0.57
		c-0.27-0.08-0.42-0.36-0.34-0.62c0.08-0.26,0.36-0.42,0.62-0.34l1.92,0.57c0.27,0.08,0.42,0.36,0.34,0.62
		C40.59,137.24,40.39,137.38,40.17,137.38z M112.32,136.57c-0.2,0-0.4-0.13-0.47-0.33c-0.09-0.26,0.04-0.55,0.3-0.64l1.88-0.68
		c0.26-0.09,0.55,0.04,0.64,0.3c0.09,0.26-0.04,0.55-0.3,0.64l-1.88,0.68C112.43,136.56,112.38,136.57,112.32,136.57z M36.33,136.25
		c-0.05,0-0.09-0.01-0.14-0.02l-1.92-0.57c-0.26-0.08-0.42-0.36-0.34-0.62c0.08-0.26,0.35-0.42,0.62-0.34l1.92,0.57
		c0.27,0.08,0.42,0.36,0.34,0.62C36.75,136.1,36.55,136.25,36.33,136.25z M116.08,135.21c-0.2,0-0.4-0.13-0.47-0.33
		c-0.09-0.26,0.04-0.55,0.3-0.64l1.72-0.62c0.26-0.1,0.55,0.04,0.64,0.3c0.09,0.26-0.04,0.55-0.3,0.64l-1.72,0.62
		C116.2,135.2,116.14,135.21,116.08,135.21z"/>
	<g>
		<path class="st0" d="M99.11,12.69l-1.12-0.57c-1.31-0.67-2.91-0.14-3.57,1.18c-2.28,4.58-8.25,14.01-18.62,14.3
			c-10.37-0.29-16.33-9.72-18.62-14.3c-0.66-1.32-2.26-1.85-3.57-1.18l-1.12,0.57c-1.59,0.81-2.17,2.78-1.31,4.34
			c9.64,17.45,22.07,17.73,24.61,17.59c2.55,0.14,14.98-0.14,24.61-17.59C101.28,15.47,100.7,13.5,99.11,12.69z"/>
		<path d="M76.45,35.14c-0.27,0-0.5-0.01-0.67-0.02c-2.42,0.13-15.22-0.09-25.02-17.84c-0.49-0.88-0.59-1.9-0.3-2.86
			c0.29-0.95,0.94-1.72,1.82-2.17l1.12-0.57c0.75-0.38,1.61-0.45,2.42-0.19c0.8,0.26,1.45,0.83,1.83,1.59
			c2.05,4.12,7.94,13.74,18.18,14.03c10.22-0.29,16.1-9.9,18.15-14.03c0.38-0.76,1.03-1.32,1.83-1.59c0.8-0.26,1.66-0.2,2.42,0.19
			l1.12,0.57c0.88,0.45,1.53,1.22,1.82,2.17c0.29,0.96,0.19,1.98-0.3,2.86C91.74,33.78,80.04,35.14,76.45,35.14z M75.78,34.12
			c2.41,0.13,14.69-0.1,24.2-17.33c0.36-0.64,0.43-1.38,0.22-2.08c-0.21-0.69-0.68-1.25-1.32-1.57l-1.12-0.57
			c-0.52-0.26-1.1-0.31-1.65-0.13c-0.55,0.18-0.99,0.56-1.25,1.08C92.73,17.8,86.6,27.8,75.82,28.1
			c-10.81-0.3-16.94-10.3-19.08-14.58c-0.26-0.52-0.7-0.9-1.25-1.08c-0.55-0.18-1.13-0.13-1.65,0.13l-1.12,0.57
			c-0.64,0.33-1.11,0.88-1.32,1.57c-0.21,0.7-0.14,1.44,0.22,2.08C61.15,34.03,73.42,34.25,75.78,34.12z"/>
	</g>
	<path d="M34.36,87.17l-0.35-13.68C34,60.57,39.64,48.38,49.49,40.03l12.3-10.43l0.65,0.76L50.13,40.8
		C40.52,48.95,35,60.86,35.01,73.48l0.35,13.67L34.36,87.17z"/>
	<path d="M31.28,72.99c-0.28,0-0.5-0.22-0.5-0.5c0-0.68,0.02-1.35,0.05-2.02c0.01-0.28,0.24-0.49,0.52-0.48
		c0.28,0.01,0.49,0.25,0.48,0.52c-0.03,0.66-0.05,1.32-0.05,1.98C31.78,72.77,31.56,72.99,31.28,72.99z M31.47,68.99
		c-0.02,0-0.03,0-0.05,0c-0.27-0.03-0.48-0.27-0.45-0.54c0.06-0.67,0.14-1.34,0.23-2.01c0.04-0.27,0.29-0.47,0.56-0.43
		c0.27,0.04,0.46,0.29,0.43,0.56c-0.09,0.65-0.17,1.31-0.23,1.96C31.94,68.8,31.72,68.99,31.47,68.99z M32.02,65.03
		c-0.03,0-0.06,0-0.09-0.01c-0.27-0.05-0.45-0.31-0.4-0.58c0.12-0.66,0.26-1.32,0.42-1.98c0.06-0.27,0.33-0.44,0.6-0.37
		c0.27,0.06,0.44,0.33,0.37,0.6c-0.15,0.64-0.29,1.29-0.41,1.94C32.46,64.86,32.25,65.03,32.02,65.03z M32.93,61.14
		c-0.05,0-0.09-0.01-0.14-0.02c-0.27-0.08-0.42-0.35-0.34-0.62c0.18-0.65,0.38-1.29,0.6-1.93c0.09-0.26,0.37-0.4,0.63-0.32
		c0.26,0.09,0.4,0.37,0.32,0.63c-0.21,0.62-0.4,1.25-0.58,1.89C33.35,60.99,33.15,61.14,32.93,61.14z M34.2,57.35
		c-0.06,0-0.12-0.01-0.18-0.03c-0.26-0.1-0.39-0.39-0.29-0.65c0.24-0.63,0.5-1.25,0.77-1.87c0.11-0.25,0.41-0.37,0.66-0.26
		c0.25,0.11,0.37,0.41,0.26,0.66c-0.27,0.6-0.52,1.21-0.76,1.83C34.59,57.22,34.4,57.35,34.2,57.35z M35.81,53.69
		c-0.07,0-0.15-0.02-0.22-0.05c-0.25-0.12-0.35-0.42-0.23-0.67c0.3-0.6,0.61-1.2,0.94-1.79c0.13-0.24,0.44-0.33,0.68-0.19
		c0.24,0.13,0.33,0.44,0.19,0.68c-0.32,0.58-0.63,1.16-0.92,1.75C36.17,53.59,35.99,53.69,35.81,53.69z M37.75,50.19
		c-0.09,0-0.18-0.02-0.26-0.07c-0.23-0.15-0.31-0.45-0.16-0.69c0.35-0.57,0.72-1.14,1.1-1.7c0.16-0.23,0.47-0.29,0.69-0.13
		c0.23,0.16,0.29,0.47,0.13,0.69c-0.37,0.54-0.73,1.1-1.08,1.66C38.08,50.11,37.92,50.19,37.75,50.19z M40.01,46.89
		c-0.1,0-0.21-0.03-0.3-0.1c-0.22-0.17-0.26-0.48-0.1-0.7c0.41-0.54,0.82-1.07,1.25-1.59c0.18-0.21,0.49-0.24,0.7-0.07
		c0.21,0.18,0.24,0.49,0.07,0.7c-0.42,0.51-0.83,1.02-1.23,1.55C40.31,46.82,40.16,46.89,40.01,46.89z M42.56,43.81
		c-0.12,0-0.24-0.04-0.34-0.13c-0.2-0.19-0.22-0.5-0.03-0.71c0.45-0.5,0.92-0.99,1.39-1.46c0.2-0.2,0.51-0.2,0.71,0
		c0.2,0.19,0.2,0.51,0,0.71c-0.47,0.47-0.92,0.94-1.36,1.43C42.83,43.76,42.69,43.81,42.56,43.81z M45.38,40.99
		c-0.14,0-0.27-0.05-0.37-0.16c-0.19-0.2-0.17-0.52,0.03-0.71c0.4-0.36,0.8-0.72,1.22-1.07l0.29-0.26c0.21-0.18,0.52-0.16,0.71,0.05
		c0.18,0.21,0.16,0.52-0.05,0.71l-0.3,0.26c-0.41,0.35-0.81,0.7-1.19,1.05C45.62,40.94,45.5,40.99,45.38,40.99z M48.39,38.35
		c-0.14,0-0.28-0.06-0.38-0.17c-0.18-0.21-0.16-0.52,0.05-0.71l1.5-1.32c0.21-0.18,0.52-0.16,0.71,0.05
		c0.18,0.21,0.16,0.52-0.05,0.71l-1.5,1.32C48.62,38.31,48.5,38.35,48.39,38.35z M51.4,35.71c-0.14,0-0.28-0.06-0.38-0.17
		c-0.18-0.21-0.16-0.52,0.05-0.71l1.5-1.32c0.21-0.18,0.52-0.16,0.71,0.05s0.16,0.52-0.05,0.71l-1.5,1.32
		C51.63,35.67,51.51,35.71,51.4,35.71z M54.4,33.08c-0.14,0-0.28-0.06-0.38-0.17c-0.18-0.21-0.16-0.52,0.05-0.71l1.5-1.32
		c0.21-0.18,0.52-0.16,0.71,0.05c0.18,0.21,0.16,0.52-0.05,0.71l-1.5,1.32C54.64,33.03,54.52,33.08,54.4,33.08z M57.41,30.44
		c-0.14,0-0.28-0.06-0.38-0.17c-0.18-0.21-0.16-0.52,0.05-0.71l1.5-1.32c0.21-0.18,0.52-0.16,0.71,0.05
		c0.18,0.21,0.16,0.52-0.05,0.71l-1.5,1.32C57.65,30.4,57.53,30.44,57.41,30.44z"/>
	<path d="M120.66,72.99c-0.28,0-0.5-0.22-0.5-0.5c0-0.66-0.02-1.32-0.05-1.98c-0.01-0.28,0.2-0.51,0.48-0.52
		c0.27-0.02,0.51,0.2,0.52,0.48c0.03,0.67,0.05,1.35,0.05,2.02C121.16,72.77,120.94,72.99,120.66,72.99z M120.48,68.99
		c-0.26,0-0.47-0.19-0.5-0.45c-0.06-0.66-0.14-1.31-0.23-1.96c-0.04-0.27,0.15-0.53,0.43-0.56c0.27-0.04,0.53,0.15,0.56,0.43
		c0.09,0.67,0.17,1.34,0.23,2.01c0.03,0.27-0.18,0.52-0.45,0.54C120.51,68.99,120.49,68.99,120.48,68.99z M119.92,65.03
		c-0.24,0-0.45-0.17-0.49-0.41c-0.12-0.65-0.26-1.29-0.41-1.94c-0.06-0.27,0.1-0.54,0.37-0.6c0.27-0.06,0.54,0.1,0.6,0.37
		c0.15,0.66,0.29,1.32,0.42,1.98c0.05,0.27-0.13,0.53-0.4,0.58C119.99,65.03,119.95,65.03,119.92,65.03z M119.01,61.14
		c-0.22,0-0.42-0.14-0.48-0.36c-0.18-0.63-0.37-1.26-0.58-1.89c-0.09-0.26,0.05-0.55,0.32-0.63c0.26-0.09,0.55,0.05,0.63,0.32
		c0.21,0.64,0.41,1.28,0.6,1.93c0.08,0.27-0.08,0.54-0.34,0.62C119.1,61.13,119.06,61.14,119.01,61.14z M117.74,57.35
		c-0.2,0-0.39-0.12-0.47-0.32c-0.24-0.61-0.49-1.22-0.76-1.83c-0.11-0.25,0-0.55,0.26-0.66c0.25-0.11,0.55,0,0.66,0.26
		c0.27,0.62,0.53,1.24,0.77,1.87c0.1,0.26-0.03,0.55-0.29,0.65C117.86,57.34,117.8,57.35,117.74,57.35z M116.13,53.69
		c-0.18,0-0.36-0.1-0.45-0.28c-0.29-0.59-0.6-1.17-0.92-1.75c-0.13-0.24-0.05-0.55,0.19-0.68c0.24-0.13,0.55-0.05,0.68,0.19
		c0.33,0.59,0.64,1.19,0.94,1.79c0.12,0.25,0.02,0.55-0.23,0.67C116.28,53.67,116.21,53.69,116.13,53.69z M114.19,50.19
		c-0.17,0-0.33-0.08-0.43-0.24c-0.35-0.56-0.71-1.11-1.08-1.66c-0.16-0.23-0.1-0.54,0.13-0.69c0.23-0.16,0.54-0.1,0.69,0.13
		c0.38,0.56,0.75,1.12,1.1,1.7c0.15,0.23,0.07,0.54-0.16,0.69C114.37,50.17,114.28,50.19,114.19,50.19z M111.93,46.89
		c-0.15,0-0.3-0.07-0.4-0.2c-0.4-0.53-0.8-1.04-1.23-1.55c-0.18-0.21-0.15-0.53,0.07-0.7c0.21-0.18,0.53-0.15,0.7,0.07
		c0.43,0.52,0.85,1.05,1.25,1.59c0.17,0.22,0.12,0.53-0.1,0.7C112.14,46.86,112.04,46.89,111.93,46.89z M109.38,43.81
		c-0.14,0-0.27-0.06-0.37-0.16c-0.44-0.49-0.9-0.96-1.36-1.43c-0.19-0.2-0.19-0.51,0-0.71c0.2-0.19,0.51-0.19,0.71,0
		c0.48,0.48,0.94,0.97,1.39,1.46c0.19,0.2,0.17,0.52-0.03,0.71C109.62,43.77,109.5,43.81,109.38,43.81z M106.56,40.99
		c-0.12,0-0.24-0.04-0.34-0.13c-0.39-0.35-0.79-0.7-1.19-1.05l-0.31-0.27c-0.21-0.18-0.23-0.5-0.05-0.71s0.5-0.23,0.71-0.05
		l0.3,0.26c0.41,0.34,0.81,0.7,1.21,1.06c0.2,0.19,0.22,0.5,0.03,0.71C106.83,40.93,106.69,40.99,106.56,40.99z M103.55,38.35
		c-0.12,0-0.23-0.04-0.33-0.12l-1.5-1.32c-0.21-0.18-0.23-0.5-0.05-0.71c0.18-0.21,0.5-0.23,0.71-0.05l1.5,1.32
		c0.21,0.18,0.23,0.5,0.05,0.71C103.83,38.29,103.69,38.35,103.55,38.35z M100.55,35.71c-0.12,0-0.23-0.04-0.33-0.12l-1.5-1.32
		c-0.21-0.18-0.23-0.5-0.05-0.71c0.18-0.21,0.5-0.23,0.71-0.05l1.5,1.32c0.21,0.18,0.23,0.5,0.05,0.71
		C100.82,35.65,100.68,35.71,100.55,35.71z M97.54,33.08c-0.12,0-0.23-0.04-0.33-0.12l-1.5-1.32c-0.21-0.18-0.23-0.5-0.05-0.71
		c0.18-0.21,0.5-0.23,0.71-0.05l1.5,1.32c0.21,0.18,0.23,0.5,0.05,0.71C97.81,33.02,97.67,33.08,97.54,33.08z M94.53,30.44
		c-0.12,0-0.23-0.04-0.33-0.12L92.69,29c-0.21-0.18-0.23-0.5-0.05-0.71c0.18-0.21,0.5-0.23,0.71-0.05l1.5,1.32
		c0.21,0.18,0.23,0.5,0.05,0.71C94.8,30.38,94.67,30.44,94.53,30.44z"/>
	<path d="M116.93,87.35l-0.33-16.74c0.01-10.8-4.71-20.99-12.94-27.96L89.18,30.37l0.65-0.76l14.48,12.28
		c8.45,7.17,13.3,17.63,13.29,28.72l0.33,16.73L116.93,87.35z"/>
	<g>
		<path class="st0" d="M6.96,50.84l5.28-3.22c0.7-0.43,1.61-0.23,2.07,0.45l19.74,28.89c0.82,1.21,0.46,2.86-0.8,3.6l-4.83,2.88
			c-0.81,0.48-1.86,0.25-2.39-0.53L6.32,53.77C5.66,52.79,5.95,51.45,6.96,50.84z"/>
		<path d="M27.52,84.18c-0.73,0-1.45-0.35-1.89-1L5.91,54.05c-0.4-0.59-0.53-1.29-0.38-1.99s0.57-1.28,1.17-1.65l5.28-3.22
			c0.93-0.57,2.13-0.31,2.75,0.59l19.74,28.89c0.48,0.7,0.64,1.54,0.46,2.36s-0.68,1.52-1.41,1.95l-4.83,2.88
			C28.32,84.07,27.92,84.18,27.52,84.18z M13.04,47.89c-0.19,0-0.37,0.05-0.54,0.15l-5.28,3.22c-0.37,0.23-0.63,0.58-0.72,1.01
			c-0.09,0.42-0.01,0.86,0.23,1.22l19.73,29.13c0.38,0.56,1.13,0.73,1.72,0.38l4.83-2.88c0.49-0.29,0.82-0.75,0.94-1.31
			s0.01-1.12-0.31-1.58L13.9,48.34C13.7,48.05,13.37,47.89,13.04,47.89z"/>
	</g>
	<g>
		<line class="st0" x1="11.65" y1="48.5" x2="32.52" y2="80.55"/>
		<g>
			<path d="M12.19,49.84c-0.16,0-0.32-0.08-0.42-0.23l-0.55-0.84c-0.15-0.23-0.09-0.54,0.15-0.69c0.23-0.15,0.54-0.08,0.69,0.15
				l0.55,0.84c0.15,0.23,0.09,0.54-0.15,0.69C12.38,49.82,12.29,49.84,12.19,49.84z"/>
			<path d="M30.94,78.61c-0.16,0-0.32-0.08-0.42-0.23l-1.04-1.6c-0.15-0.23-0.09-0.54,0.15-0.69c0.23-0.15,0.54-0.08,0.69,0.15
				l1.04,1.6c0.15,0.23,0.09,0.54-0.15,0.69C31.12,78.59,31.03,78.61,30.94,78.61z M28.85,75.42c-0.16,0-0.32-0.08-0.42-0.23
				l-1.04-1.6c-0.15-0.23-0.09-0.54,0.15-0.69c0.23-0.15,0.54-0.09,0.69,0.15l1.04,1.6c0.15,0.23,0.09,0.54-0.15,0.69
				C29.04,75.39,28.95,75.42,28.85,75.42z M26.77,72.22c-0.16,0-0.32-0.08-0.42-0.23l-1.04-1.6c-0.15-0.23-0.09-0.54,0.15-0.69
				c0.23-0.15,0.54-0.08,0.69,0.15l1.04,1.6c0.15,0.23,0.09,0.54-0.15,0.69C26.96,72.19,26.86,72.22,26.77,72.22z M24.69,69.02
				c-0.16,0-0.32-0.08-0.42-0.23l-1.04-1.6c-0.15-0.23-0.09-0.54,0.15-0.69c0.23-0.15,0.54-0.08,0.69,0.15l1.04,1.6
				c0.15,0.23,0.09,0.54-0.15,0.69C24.88,69,24.78,69.02,24.69,69.02z M22.61,65.83c-0.16,0-0.32-0.08-0.42-0.23L21.14,64
				c-0.15-0.23-0.09-0.54,0.15-0.69c0.23-0.15,0.54-0.09,0.69,0.15l1.04,1.6c0.15,0.23,0.09,0.54-0.15,0.69
				C22.79,65.8,22.7,65.83,22.61,65.83z M20.52,62.63c-0.16,0-0.32-0.08-0.42-0.23l-1.04-1.6c-0.15-0.23-0.09-0.54,0.15-0.69
				c0.23-0.15,0.54-0.08,0.69,0.15l1.04,1.6c0.15,0.23,0.09,0.54-0.15,0.69C20.71,62.6,20.62,62.63,20.52,62.63z M18.44,59.43
				c-0.16,0-0.32-0.08-0.42-0.23l-1.04-1.6c-0.15-0.23-0.09-0.54,0.15-0.69c0.23-0.15,0.54-0.09,0.69,0.15l1.04,1.6
				c0.15,0.23,0.09,0.54-0.15,0.69C18.63,59.41,18.53,59.43,18.44,59.43z M16.36,56.24c-0.16,0-0.32-0.08-0.42-0.23l-1.04-1.6
				c-0.15-0.23-0.09-0.54,0.15-0.69s0.54-0.09,0.69,0.15l1.04,1.6c0.15,0.23,0.09,0.54-0.15,0.69
				C16.55,56.21,16.45,56.24,16.36,56.24z M14.28,53.04c-0.16,0-0.32-0.08-0.42-0.23l-1.04-1.6c-0.15-0.23-0.09-0.54,0.15-0.69
				c0.23-0.15,0.54-0.08,0.69,0.15l1.04,1.6c0.15,0.23,0.09,0.54-0.15,0.69C14.46,53.01,14.37,53.04,14.28,53.04z"/>
			<path d="M32.52,81.05c-0.16,0-0.32-0.08-0.42-0.23l-0.55-0.84c-0.15-0.23-0.09-0.54,0.15-0.69c0.23-0.15,0.54-0.09,0.69,0.15
				l0.55,0.84c0.15,0.23,0.09,0.54-0.15,0.69C32.71,81.02,32.62,81.05,32.52,81.05z"/>
		</g>
	</g>
	<g>
		<path class="st0" d="M144.65,50.84l-5.28-3.22c-0.7-0.43-1.61-0.23-2.07,0.45l-19.74,28.89c-0.82,1.21-0.46,2.86,0.8,3.6
			l4.83,2.88c0.81,0.48,1.86,0.25,2.39-0.53l19.73-29.13C145.95,52.79,145.66,51.45,144.65,50.84z"/>
		<path d="M124.09,84.18c-0.4,0-0.8-0.1-1.16-0.32l-4.83-2.88c-0.73-0.43-1.23-1.13-1.41-1.95s-0.02-1.67,0.46-2.36l19.74-28.89
			c0.61-0.9,1.82-1.15,2.75-0.59l5.28,3.22c0.61,0.37,1.02,0.96,1.17,1.65c0.15,0.69,0.01,1.4-0.38,1.99l-19.73,29.13
			C125.54,83.82,124.82,84.18,124.09,84.18z M138.57,47.89c-0.33,0-0.66,0.16-0.86,0.45l-19.74,28.89
			c-0.32,0.47-0.43,1.03-0.31,1.58s0.46,1.02,0.94,1.31l4.83,2.88c0.58,0.35,1.33,0.18,1.71-0.38l19.73-29.13
			c0.24-0.36,0.33-0.79,0.24-1.22c-0.09-0.42-0.35-0.78-0.72-1.01l-5.28-3.22C138.94,47.94,138.76,47.89,138.57,47.89z"/>
	</g>
	<g>
		<line class="st0" x1="138.98" y1="48.5" x2="118.35" y2="80.55"/>
		<g>
			<path d="M138.44,49.84c-0.09,0-0.19-0.03-0.27-0.08c-0.23-0.15-0.3-0.46-0.15-0.69l0.54-0.84c0.15-0.23,0.46-0.3,0.69-0.15
				c0.23,0.15,0.3,0.46,0.15,0.69l-0.54,0.84C138.76,49.76,138.6,49.84,138.44,49.84z"/>
			<path d="M119.92,78.61c-0.09,0-0.19-0.03-0.27-0.08c-0.23-0.15-0.3-0.46-0.15-0.69l1.03-1.6c0.15-0.23,0.46-0.3,0.69-0.15
				c0.23,0.15,0.3,0.46,0.15,0.69l-1.03,1.6C120.24,78.53,120.08,78.61,119.92,78.61z M121.98,75.42c-0.09,0-0.19-0.03-0.27-0.08
				c-0.23-0.15-0.3-0.46-0.15-0.69l1.03-1.6c0.15-0.23,0.46-0.3,0.69-0.15c0.23,0.15,0.3,0.46,0.15,0.69l-1.03,1.6
				C122.3,75.33,122.14,75.42,121.98,75.42z M124.03,72.22c-0.09,0-0.19-0.03-0.27-0.08c-0.23-0.15-0.3-0.46-0.15-0.69l1.03-1.6
				c0.15-0.23,0.46-0.3,0.69-0.15c0.23,0.15,0.3,0.46,0.15,0.69l-1.03,1.6C124.36,72.14,124.2,72.22,124.03,72.22z M126.09,69.02
				c-0.09,0-0.19-0.03-0.27-0.08c-0.23-0.15-0.3-0.46-0.15-0.69l1.03-1.6c0.15-0.23,0.46-0.3,0.69-0.15
				c0.23,0.15,0.3,0.46,0.15,0.69l-1.03,1.6C126.42,68.94,126.26,69.02,126.09,69.02z M128.15,65.83c-0.09,0-0.19-0.03-0.27-0.08
				c-0.23-0.15-0.3-0.46-0.15-0.69l1.03-1.6c0.15-0.23,0.46-0.3,0.69-0.15s0.3,0.46,0.15,0.69l-1.03,1.6
				C128.47,65.75,128.31,65.83,128.15,65.83z M130.21,62.63c-0.09,0-0.19-0.03-0.27-0.08c-0.23-0.15-0.3-0.46-0.15-0.69l1.03-1.6
				c0.15-0.23,0.46-0.3,0.69-0.15c0.23,0.15,0.3,0.46,0.15,0.69l-1.03,1.6C130.53,62.55,130.37,62.63,130.21,62.63z M132.26,59.43
				c-0.09,0-0.19-0.03-0.27-0.08c-0.23-0.15-0.3-0.46-0.15-0.69l1.03-1.6c0.15-0.23,0.46-0.3,0.69-0.15
				c0.23,0.15,0.3,0.46,0.15,0.69l-1.03,1.6C132.59,59.35,132.43,59.43,132.26,59.43z M134.32,56.24c-0.09,0-0.19-0.03-0.27-0.08
				c-0.23-0.15-0.3-0.46-0.15-0.69l1.03-1.6c0.15-0.23,0.46-0.3,0.69-0.15c0.23,0.15,0.3,0.46,0.15,0.69l-1.03,1.6
				C134.65,56.16,134.49,56.24,134.32,56.24z M136.38,53.04c-0.09,0-0.19-0.03-0.27-0.08c-0.23-0.15-0.3-0.46-0.15-0.69l1.03-1.6
				c0.15-0.23,0.46-0.3,0.69-0.15c0.23,0.15,0.3,0.46,0.15,0.69l-1.03,1.6C136.7,52.96,136.54,53.04,136.38,53.04z"/>
			<path d="M118.35,81.05c-0.09,0-0.19-0.03-0.27-0.08c-0.23-0.15-0.3-0.46-0.15-0.69l0.54-0.84c0.15-0.23,0.46-0.3,0.69-0.15
				c0.23,0.15,0.3,0.46,0.15,0.69l-0.54,0.84C118.67,80.97,118.51,81.05,118.35,81.05z"/>
		</g>
	</g>
</g>
<g>
	<polygon class="st1" points="70.07,80.04 73.83,89.54 76.97,81.37 97.07,67.45 	"/>
	<linearGradient id="SVGID_1_" gradientUnits="userSpaceOnUse" x1="71.7129" y1="84.9668" x2="77.7909" y2="80.5096">
		<stop  offset="0" style="stop-color:#4264AE"/>
		<stop  offset="1" style="stop-color:#4C72AF;stop-opacity:0"/>
	</linearGradient>
	<polygon class="st2" points="77.66,76.51 70.07,80.04 73.83,89.54 76.97,81.37 77.89,80.74 	"/>
	<path class="st3" d="M91.64,86.89l-0.04-0.15c-0.36-0.83-2.63-1.48-5.38-1.48c-3,0-5.43,0.77-5.43,1.71l0,0l0.04,0.2l1.7,8.86
		c0,1.03,2.65,1.86,5.91,1.86c3.27,0,5.91-0.83,5.91-1.86c0-0.09-0.02-0.17-0.06-0.26h0L91.64,86.89z"/>
	<polygon class="st3" points="97.07,67.45 59.28,78.86 70.07,80.04 	"/>
	<linearGradient id="SVGID_2_" gradientUnits="userSpaceOnUse" x1="72.3259" y1="76.9685" x2="79.8221" y2="74.5373">
		<stop  offset="0" style="stop-color:#4264AE"/>
		<stop  offset="1" style="stop-color:#4C72AF;stop-opacity:0"/>
	</linearGradient>
	<polygon class="st4" points="71.28,79.43 80.73,75.02 80.73,72.34 70.92,75.3 	"/>
	<path class="st1" d="M76.43,64.37l0.95,4.93l0.02,0.1c-0.01-0.03-0.02-0.06-0.02-0.1l0,0l0.02,0.1c0.2,0.56,2.13,1,4.48,1
		c2.49,0,4.5-0.49,4.5-1.1c0-0.01,0-0.01,0-0.02l-0.04-0.13l-3.83-12.83c-1.7-2.09-3.09-1.11-3.94,0.01
		c-0.53,0.7-0.88,1.53-1.05,2.39L76.43,64.37z"/>
	<linearGradient id="SVGID_3_" gradientUnits="userSpaceOnUse" x1="79.8251" y1="60.4" x2="81.0407" y2="65.6676">
		<stop  offset="0" style="stop-color:#4264AE"/>
		<stop  offset="1" style="stop-color:#4C72AF;stop-opacity:0"/>
	</linearGradient>
	<path class="st5" d="M76.43,64.37l0.95,4.93l0.02,0.1c-0.01-0.03-0.02-0.06-0.02-0.1l0,0l0.02,0.1c0.2,0.56,2.13,1,4.48,1
		c2.49,0,4.5-0.49,4.5-1.1c0-0.01,0-0.01,0-0.02l-0.04-0.13l-3.83-12.83c-1.7-2.09-3.09-1.11-3.94,0.01
		c-0.53,0.7-0.88,1.53-1.05,2.39L76.43,64.37z"/>
	<polygon class="st3" points="97.07,67.45 76.97,81.37 95.08,83.26 	"/>
	<polygon class="st3" points="73.83,89.54 84.71,82.18 76.97,81.37 	"/>
	<linearGradient id="SVGID_4_" gradientUnits="userSpaceOnUse" x1="82.3692" y1="78.5396" x2="78.6211" y2="86.3397">
		<stop  offset="0" style="stop-color:#4369B2"/>
		<stop  offset="1" style="stop-color:#4C72AF;stop-opacity:0"/>
	</linearGradient>
	<polygon class="st6" points="75.37,85.47 79.23,85.87 84.68,82.18 76.95,81.37 	"/>
	<linearGradient id="SVGID_5_" gradientUnits="userSpaceOnUse" x1="96.8466" y1="90.6945" x2="83.3737" y2="93.3283">
		<stop  offset="0" style="stop-color:#4264AE"/>
		<stop  offset="1" style="stop-color:#4C72AF;stop-opacity:0"/>
	</linearGradient>
	<path class="st7" d="M94.34,96.03c0-0.09-0.02-0.17-0.06-0.26h0l-2.65-8.89l-0.04-0.15c-0.07-0.16-0.22-0.32-0.42-0.46l-5.39,0.7
		l0.12,0.51l2.36,10.4c0.06,0,0.12,0,0.18,0C91.7,97.89,94.34,97.06,94.34,96.03z"/>
	<ellipse class="st1" cx="86.21" cy="86.97" rx="5.43" ry="1.71"/>
	<linearGradient id="SVGID_6_" gradientUnits="userSpaceOnUse" x1="87.8605" y1="86.644" x2="83.8085" y2="87.4544">
		<stop  offset="0" style="stop-color:#4264AE"/>
		<stop  offset="1" style="stop-color:#4C72AF;stop-opacity:0"/>
	</linearGradient>
	<ellipse class="st8" cx="86.21" cy="86.97" rx="5.43" ry="1.71"/>
	<path class="st3" d="M76.54,64.76l-0.01-0.04l0.3-1.53l0.13-0.68l0.21-1.06l0.03-0.09c0.53-1.37,1.86-2.35,3.42-2.35
		c0.5,0,0.97,0.1,1.4,0.28c0.86,0.36,1.56,1.03,1.94,1.87l-1.34-4.5h0.02c0,0-0.16-0.58-0.29-0.98c-0.27-0.84-0.58-1.62-1.11-2.21
		c-1.11-1.51-2.9-2.49-4.92-2.49c-2.86,0-5.26,1.97-5.92,4.63l0,0l-1.39,4.29c-0.11,0.28-0.16,0.45-0.18,0.49l0,0.01l-0.48,1.53
		l-0.02,0.07l0,0h0l0,0l0.02-0.07l0.48-1.53l-0.48,1.53l0,0c0,0,0,0,0,0c0.01,0.01,0.02,0.02,0.02,0.03l-0.05,0.03L54.25,107
		c-0.08,0.13-0.12,0.26-0.12,0.39c0,1.17,3.15,2.11,7.03,2.11c3.88,0,7.03-0.94,7.03-2.11l0-0.01l0.01-0.04l0.03-0.13l0.02-0.11
		l0.03-0.18l7.57-38.65L76.54,64.76l-0.69,3.52l0,0l-7.63,38.93c-0.01,0.06-0.02,0.1-0.03,0.13"/>
	<linearGradient id="SVGID_7_" gradientUnits="userSpaceOnUse" x1="76.1222" y1="48.2016" x2="76.2573" y2="59.4121">
		<stop  offset="0" style="stop-color:#4264AE"/>
		<stop  offset="1" style="stop-color:#4C72AF;stop-opacity:0"/>
	</linearGradient>
	<path class="st9" d="M82.02,59.3c0.86,0.36,1.56,1.03,1.94,1.87l-1.34-4.5h0.02c0,0-0.16-0.58-0.29-0.98
		c-0.27-0.84-0.58-1.62-1.11-2.21c-1.11-1.51-2.9-2.49-4.92-2.49c-2.86,0-5.26,1.97-5.92,4.63l0,0l-1.39,4.29
		c-0.11,0.28-0.16,0.45-0.18,0.49l0,0.01l-0.23,0.75c2.73,1.63,5.53,3.3,7.75,4.61l0.2-1.01l-0.01-0.04l0.3-1.53l0.13-0.68
		l0.21-1.06l0.03-0.09c0.53-1.37,1.86-2.35,3.42-2.35C81.12,59.02,81.59,59.12,82.02,59.3z"/>
	<linearGradient id="SVGID_8_" gradientUnits="userSpaceOnUse" x1="97.1931" y1="67.1551" x2="84.3955" y2="74.6176">
		<stop  offset="0" style="stop-color:#4264AE"/>
		<stop  offset="1" style="stop-color:#4C72AF;stop-opacity:0"/>
	</linearGradient>
	<polygon class="st10" points="97.07,67.45 79.68,75.56 82.67,77.43 	"/>
</g>
</svg>
