<svg xmlns="http://www.w3.org/2000/svg" viewBox="0 0 140.68 137.1"><defs><style>.cls-1{isolation:isolate;}.cls-2,.cls-6{fill:#fff;}.cls-2,.cls-3,.cls-4,.cls-7,.cls-8{stroke:#000;}.cls-2,.cls-4{stroke-miterlimit:10;}.cls-3,.cls-4,.cls-7,.cls-8{fill:none;}.cls-3,.cls-7,.cls-8{stroke-linecap:round;stroke-linejoin:round;}.cls-3{stroke-dasharray:2;}.cls-5{fill:#6b8199;mix-blend-mode:multiply;}.cls-8{stroke-dasharray:1.91 1.91;}</style></defs><title>Asset 1</title><g class="cls-1"><g id="Layer_2" data-name="Layer 2"><g id="Layer_1-2" data-name="Layer 1"><path class="cls-2" d="M98.67,131.93l11.07-3.74a3.88,3.88,0,0,0,2.63-3.72l-.74-48.54a7.91,7.91,0,0,1,1.44-4.66L134.5,41.05l-11.58-18a19.18,19.18,0,0,0-6.58-6.24L89.86,1,80.62,5.48a23.44,23.44,0,0,1-20.57,0l-9-4.39L24.35,16.84a19.09,19.09,0,0,0-6.58,6.24l-11.59,18L27.61,71.27a7.84,7.84,0,0,1,1.44,4.66l-.72,47.7a5,5,0,0,0,3.41,4.83L42,131.93A88.35,88.35,0,0,0,98.67,131.93Z"/><path class="cls-3" d="M28.33,123.63,42,127.7a88.35,88.35,0,0,0,56.66,0l13.67-5"/><path class="cls-2" d="M93.65,1.36,92.53.79A2.64,2.64,0,0,0,89,2c-2.29,4.58-8.25,14-18.62,14.3C60,16,54,6.55,51.73,2A2.64,2.64,0,0,0,48.16.79L47,1.36A3.15,3.15,0,0,0,45.73,5.7c9.63,17.45,22.06,17.73,24.61,17.59,2.55.14,15-.14,24.62-17.59A3.15,3.15,0,0,0,93.65,1.36Z"/><path class="cls-4" d="M29.05,75.93V62.15a43.33,43.33,0,0,1,15.3-33.07L56.64,18.66"/><path class="cls-5" d="M45.35,4.48l-21,12.36a19.09,19.09,0,0,0-6.58,6.24l-11.59,18L27.61,71.27a7.84,7.84,0,0,1,1.44,4.66V62.15a43.33,43.33,0,0,1,15.3-33.07L56.72,18.71a38.49,38.49,0,0,1-11-13A3,3,0,0,1,45.35,4.48Z"/><path class="cls-5" d="M95.41,4.48l21,12.36A19.18,19.18,0,0,1,123,23.08l11.58,18L113.15,71.27a7.85,7.85,0,0,0-1.45,4.66V62.15a43.33,43.33,0,0,0-15.3-33.07L84,18.71a38.49,38.49,0,0,0,11-13A3.21,3.21,0,0,0,95.41,4.48Z"/><path class="cls-3" d="M25.82,61.16A43.31,43.31,0,0,1,41.12,28.1L54.17,16.66"/><path class="cls-3" d="M115.2,61.16A43.32,43.32,0,0,0,99.89,28.1l-13-11.44"/><path class="cls-4" d="M111.63,75.93V59.27A37.12,37.12,0,0,0,98.53,30.94L84,18.66"/><path class="cls-2" d="M1.49,39.51l5.29-3.23a1.54,1.54,0,0,1,2.07.45L28.59,65.62a2.53,2.53,0,0,1-.79,3.6L23,72.1a1.78,1.78,0,0,1-2.39-.54L.86,42.44A2.06,2.06,0,0,1,1.49,39.51Z"/><line class="cls-6" x1="6.18" y1="37.17" x2="27.06" y2="69.22"/><line class="cls-7" x1="6.18" y1="37.17" x2="6.73" y2="38.01"/><line class="cls-8" x1="7.77" y1="39.61" x2="25.99" y2="67.58"/><line class="cls-7" x1="26.51" y1="68.38" x2="27.06" y2="69.22"/><path class="cls-2" d="M139.19,39.51l-5.28-3.23a1.54,1.54,0,0,0-2.07.45L112.09,65.62a2.53,2.53,0,0,0,.8,3.6l4.83,2.88a1.77,1.77,0,0,0,2.38-.54l19.73-29.12A2.07,2.07,0,0,0,139.19,39.51Z"/><line class="cls-3" x1="133.52" y1="37.17" x2="112.89" y2="69.22"/></g></g></g></svg>